G04*
G04 #@! TF.GenerationSoftware,Altium Limited,Altium Designer,21.8.1 (53)*
G04*
G04 Layer_Color=16711935*
%FSLAX25Y25*%
%MOIN*%
G70*
G04*
G04 #@! TF.SameCoordinates,187DA05A-B4E4-4C7B-AEA6-211E795FDF11*
G04*
G04*
G04 #@! TF.FilePolarity,Negative*
G04*
G01*
G75*
%ADD11C,0.01000*%
%ADD44C,0.06800*%
%ADD45R,0.06800X0.06800*%
%ADD46R,0.06800X0.06706*%
%ADD47R,0.06705X0.06705*%
%ADD48C,0.06706*%
%ADD49O,0.12800X0.15800*%
%ADD50C,0.02800*%
D11*
X20079Y118110D02*
X19962Y119109D01*
X19618Y120054D01*
X19065Y120894D01*
X18334Y121584D01*
X17463Y122087D01*
X16500Y122375D01*
X15496Y122434D01*
X14506Y122259D01*
X13583Y121861D01*
X12776Y121260D01*
X12130Y120490D01*
X11678Y119591D01*
X11447Y118613D01*
Y117607D01*
X11678Y116629D01*
X12130Y115731D01*
X12776Y114960D01*
X13583Y114360D01*
X14506Y113962D01*
X15496Y113787D01*
X16500Y113845D01*
X17463Y114134D01*
X18334Y114637D01*
X19065Y115326D01*
X19618Y116167D01*
X19962Y117112D01*
X20079Y118110D01*
X189370D02*
X189253Y119109D01*
X188909Y120054D01*
X188357Y120894D01*
X187626Y121584D01*
X186755Y122087D01*
X185791Y122375D01*
X184788Y122434D01*
X183797Y122259D01*
X182874Y121861D01*
X182068Y121260D01*
X181421Y120490D01*
X180970Y119591D01*
X180738Y118613D01*
Y117607D01*
X180970Y116629D01*
X181421Y115731D01*
X182068Y114960D01*
X182874Y114360D01*
X183797Y113962D01*
X184788Y113787D01*
X185791Y113845D01*
X186755Y114134D01*
X187626Y114637D01*
X188357Y115326D01*
X188909Y116167D01*
X189253Y117112D01*
X189370Y118110D01*
X0Y0D02*
X200000D01*
X0Y140000D02*
X200000D01*
Y0D02*
Y140000D01*
X0Y0D02*
Y140000D01*
D44*
X79500Y31189D02*
D03*
X69657D02*
D03*
X174843Y32500D02*
D03*
X165000D02*
D03*
X155157D02*
D03*
X26000Y31189D02*
D03*
X35842D02*
D03*
D45*
X59815D02*
D03*
X16158D02*
D03*
D46*
X184685Y32500D02*
D03*
D47*
X102000Y23000D02*
D03*
D48*
X111845D02*
D03*
X122005D02*
D03*
X132005D02*
D03*
D49*
X80000Y114000D02*
D03*
X60000D02*
D03*
D50*
X21000Y27000D02*
D03*
X17500Y81000D02*
D03*
X10000D02*
D03*
X27500Y77500D02*
D03*
X7000Y26000D02*
D03*
X61000Y63500D02*
D03*
X59500Y65500D02*
D03*
X74500Y38000D02*
D03*
X130500Y57000D02*
D03*
X124500D02*
D03*
X125000Y48000D02*
D03*
X86500Y97000D02*
D03*
X91000Y97500D02*
D03*
X48000Y88500D02*
D03*
Y91500D02*
D03*
X75586Y90414D02*
D03*
X8000Y33500D02*
D03*
X21500Y37500D02*
D03*
X53000Y28000D02*
D03*
Y33000D02*
D03*
X137000Y26500D02*
D03*
X127000D02*
D03*
X189500Y27000D02*
D03*
X190500Y31000D02*
D03*
X185500Y25500D02*
D03*
X180500Y26000D02*
D03*
X190500Y34500D02*
D03*
X188500Y38500D02*
D03*
X181500D02*
D03*
X189000Y63000D02*
D03*
Y60000D02*
D03*
Y66000D02*
D03*
X180500Y54500D02*
D03*
Y59500D02*
D03*
Y63500D02*
D03*
X128500Y110500D02*
D03*
Y114000D02*
D03*
X111000Y110500D02*
D03*
Y113500D02*
D03*
X102000Y110500D02*
D03*
Y113500D02*
D03*
X88000Y108500D02*
D03*
X89000Y120000D02*
D03*
X70500Y108500D02*
D03*
Y117000D02*
D03*
X163500Y48000D02*
D03*
X39000Y118000D02*
D03*
X46500Y116000D02*
D03*
X147500Y48000D02*
D03*
X70500Y97500D02*
D03*
X116500Y84500D02*
D03*
X110000Y82500D02*
D03*
X107000Y83500D02*
D03*
X11000Y38500D02*
D03*
X29500Y41500D02*
D03*
X36500D02*
D03*
X54500Y46500D02*
D03*
X65000Y36000D02*
D03*
X130000Y64500D02*
D03*
X127000Y97500D02*
D03*
X85000Y53000D02*
D03*
X73500Y64500D02*
D03*
Y71500D02*
D03*
X117993Y77493D02*
D03*
X121000Y78000D02*
D03*
X101500Y37000D02*
D03*
X123000Y30000D02*
D03*
X112000Y35000D02*
D03*
X121500Y36000D02*
D03*
X111018Y39018D02*
D03*
X107500Y39000D02*
D03*
X73500Y51500D02*
D03*
X38500Y78000D02*
D03*
X31500Y96191D02*
D03*
X23500Y85000D02*
D03*
X76500Y67500D02*
D03*
X85000Y71000D02*
D03*
X47500Y69500D02*
D03*
X41500Y105000D02*
D03*
X48000Y100000D02*
D03*
X100500Y77000D02*
D03*
X120000Y66000D02*
D03*
X52000Y85000D02*
D03*
X59000Y74000D02*
D03*
X104000Y72500D02*
D03*
X58732Y70732D02*
D03*
X56500Y97500D02*
D03*
X112000Y92500D02*
D03*
X51922Y97422D02*
D03*
X124000Y104000D02*
D03*
X115000D02*
D03*
X104000Y77000D02*
D03*
X110000Y89000D02*
D03*
X157749Y65251D02*
D03*
X179789Y74075D02*
D03*
X171000Y97500D02*
D03*
X127000Y101000D02*
D03*
X156500Y116500D02*
D03*
M02*
