G04*
G04 #@! TF.GenerationSoftware,Altium Limited,Altium Designer,21.8.1 (53)*
G04*
G04 Layer_Physical_Order=1*
G04 Layer_Color=255*
%FSLAX25Y25*%
%MOIN*%
G70*
G04*
G04 #@! TF.SameCoordinates,187DA05A-B4E4-4C7B-AEA6-211E795FDF11*
G04*
G04*
G04 #@! TF.FilePolarity,Positive*
G04*
G01*
G75*
%ADD11C,0.01000*%
%ADD18R,0.06299X0.04724*%
%ADD19R,0.07874X0.08268*%
%ADD20R,0.05000X0.01000*%
%ADD21R,0.01000X0.05000*%
%ADD22R,0.03543X0.03150*%
%ADD23R,0.04724X0.06496*%
%ADD24R,0.02646X0.06201*%
%ADD25R,0.03000X0.03000*%
%ADD26R,0.03000X0.03000*%
%ADD27R,0.03150X0.03543*%
%ADD28R,0.01575X0.06693*%
%ADD29R,0.02362X0.04213*%
%ADD30R,0.03347X0.02756*%
%ADD51C,0.02000*%
%ADD52C,0.01500*%
%ADD53C,0.06000*%
%ADD54R,0.06000X0.06000*%
%ADD55R,0.06000X0.05906*%
%ADD56R,0.05905X0.05905*%
%ADD57C,0.05906*%
%ADD58O,0.12000X0.15000*%
%ADD59C,0.02000*%
G36*
X53823Y118793D02*
X53501Y118192D01*
X53101Y116872D01*
X52966Y115500D01*
Y112500D01*
X53101Y111128D01*
X53501Y109808D01*
X54151Y108592D01*
X55026Y107526D01*
X56092Y106651D01*
X57308Y106001D01*
X57961Y105804D01*
Y99521D01*
X57461Y99267D01*
X56898Y99500D01*
X56663D01*
X52581Y103581D01*
X52085Y103913D01*
X51500Y104029D01*
X43713D01*
X43435Y104445D01*
X43500Y104602D01*
Y105398D01*
X43196Y106133D01*
X42633Y106695D01*
X41898Y107000D01*
X41238D01*
X40942Y107305D01*
X40869Y107445D01*
X40947Y107677D01*
X42389D01*
Y107677D01*
X45964D01*
Y113908D01*
X46102Y114000D01*
X46898D01*
X47633Y114304D01*
X48195Y114867D01*
X48500Y115602D01*
Y116398D01*
X48195Y117133D01*
X47633Y117695D01*
X46898Y118000D01*
X46102D01*
X45367Y117695D01*
X45103Y117432D01*
X45009Y117413D01*
X44512Y117081D01*
X43875Y116444D01*
X43637Y116407D01*
X43384Y116394D01*
X43077Y116733D01*
X43031Y116968D01*
X42699Y117464D01*
X41202Y118961D01*
X41364Y119437D01*
X41383Y119461D01*
X53155D01*
X53823Y118793D01*
D02*
G37*
G36*
X111504Y100462D02*
X111312Y100000D01*
X107500D01*
Y99029D01*
X105865D01*
Y100272D01*
X101626D01*
X101435Y100734D01*
X105823Y105122D01*
X106844D01*
X111504Y100462D01*
D02*
G37*
G36*
X54569Y96935D02*
X54804Y96367D01*
X55367Y95805D01*
X56102Y95500D01*
X56898D01*
X57461Y95733D01*
X57961Y95479D01*
Y87845D01*
X54416Y84300D01*
X53992Y84583D01*
X54000Y84602D01*
Y85398D01*
X53695Y86133D01*
X53133Y86695D01*
X52398Y87000D01*
X51602D01*
X50867Y86695D01*
X50701Y86529D01*
X43406D01*
Y94322D01*
X43406D01*
X43462Y94799D01*
X44555Y95893D01*
X50623D01*
X50789Y95726D01*
X51524Y95422D01*
X52320D01*
X53055Y95726D01*
X53617Y96289D01*
X53835Y96814D01*
X54330Y97024D01*
X54422Y97024D01*
X54569Y96935D01*
D02*
G37*
G36*
X197500Y131500D02*
Y5500D01*
X194500Y2500D01*
X6000D01*
X2500Y6000D01*
Y30408D01*
X3000Y30560D01*
X3238Y30203D01*
X4703Y28738D01*
X4703Y28738D01*
X5282Y28352D01*
X5965Y28216D01*
X7297D01*
X13274Y22238D01*
X13853Y21851D01*
X14536Y21716D01*
X14536Y21716D01*
X33689D01*
X33689Y21716D01*
X33689Y21716D01*
X61230D01*
X65660Y17285D01*
X66239Y16898D01*
X66922Y16763D01*
X66922Y16763D01*
X133850D01*
X134532Y16898D01*
X135111Y17285D01*
X150657Y32832D01*
X151157Y32625D01*
Y31973D01*
X151430Y30956D01*
X151957Y30044D01*
X152701Y29299D01*
X153613Y28773D01*
X154631Y28500D01*
X155684D01*
X156701Y28773D01*
X157614Y29299D01*
X158358Y30044D01*
X158885Y30956D01*
X159158Y31973D01*
Y33027D01*
X158885Y34044D01*
X158358Y34956D01*
X157614Y35701D01*
X156701Y36227D01*
X155684Y36500D01*
X155033D01*
X154826Y37000D01*
X159011Y41185D01*
X159011Y41185D01*
X159398Y41764D01*
X159534Y42447D01*
Y63721D01*
X160226D01*
Y61003D01*
X166013D01*
X166204Y60541D01*
X164788Y59125D01*
X160226D01*
Y50629D01*
X162059D01*
Y49388D01*
X161804Y49133D01*
X161500Y48398D01*
Y47602D01*
X161804Y46867D01*
X162059Y46612D01*
Y43754D01*
X162176Y43169D01*
X162507Y42673D01*
X171123Y34057D01*
X171115Y34044D01*
X170843Y33027D01*
Y31973D01*
X171115Y30956D01*
X171642Y30044D01*
X172387Y29299D01*
X173299Y28773D01*
X174316Y28500D01*
X175369D01*
X176386Y28773D01*
X177299Y29299D01*
X178043Y30044D01*
X178570Y30956D01*
X178842Y31973D01*
Y33027D01*
X178570Y34044D01*
X178043Y34956D01*
X177299Y35701D01*
X176386Y36227D01*
X175369Y36500D01*
X174316D01*
X173299Y36227D01*
X173285Y36220D01*
X165118Y44387D01*
Y46790D01*
X165196Y46867D01*
X165500Y47602D01*
Y48398D01*
X165196Y49133D01*
X165145Y49183D01*
X165186Y49580D01*
X165653Y49764D01*
X166369Y49047D01*
X166866Y48716D01*
X167451Y48599D01*
X181013D01*
X181598Y48716D01*
X182094Y49047D01*
X183891Y50844D01*
X187272D01*
Y55994D01*
X181728D01*
Y53007D01*
X180379Y51658D01*
X168084D01*
X166951Y52792D01*
Y56962D01*
X170827Y60839D01*
X171159Y61335D01*
X171275Y61920D01*
Y69974D01*
X172069D01*
Y77295D01*
X172829Y78056D01*
X173329Y77849D01*
X173329Y77848D01*
X173329Y77810D01*
Y69974D01*
X177975D01*
Y72290D01*
X178870D01*
X179391Y72075D01*
X180187D01*
X180707Y72290D01*
X181728D01*
Y70925D01*
X187272D01*
Y76075D01*
X181728D01*
Y75859D01*
X180707D01*
X180187Y76075D01*
X179391D01*
X178870Y75859D01*
X177975D01*
Y78175D01*
X173656Y78175D01*
X173656Y78175D01*
X173637Y78221D01*
X173449Y78675D01*
X173467Y78693D01*
X173688Y79024D01*
X173766Y79414D01*
Y85414D01*
X173688Y85805D01*
X173467Y86135D01*
X171967Y87635D01*
X171636Y87856D01*
X171246Y87934D01*
X168246D01*
X167856Y87856D01*
X167525Y87635D01*
X166025Y86135D01*
X165804Y85805D01*
X165726Y85414D01*
Y79414D01*
X165804Y79024D01*
X166025Y78693D01*
X167423Y77295D01*
Y69974D01*
X168217D01*
Y62554D01*
X167413Y61750D01*
X166951Y61941D01*
Y69499D01*
X160226D01*
Y66780D01*
X159048D01*
X158882Y66946D01*
X158147Y67251D01*
X157351D01*
X156616Y66946D01*
X156054Y66384D01*
X155749Y65649D01*
Y64853D01*
X155965Y64332D01*
Y59736D01*
X155503Y59544D01*
X155156Y59891D01*
Y63272D01*
X150006D01*
Y57728D01*
X152993D01*
X153950Y56772D01*
X153743Y56272D01*
X150006D01*
Y52891D01*
X147115Y50000D01*
X147102D01*
X146367Y49696D01*
X146201Y49529D01*
X139437D01*
X136075Y52891D01*
Y56272D01*
X135029D01*
Y57728D01*
X136075D01*
Y63272D01*
X133088D01*
X132000Y64360D01*
Y64898D01*
X132105Y65055D01*
X139937D01*
Y68660D01*
X145189D01*
X145774Y68776D01*
X146270Y69108D01*
X153663Y76500D01*
X156500D01*
Y81500D01*
X151500D01*
Y78663D01*
X144555Y71718D01*
X139937D01*
Y75323D01*
X132029D01*
X128270Y79081D01*
X127774Y79413D01*
X127189Y79529D01*
X122299D01*
X122133Y79695D01*
X121398Y80000D01*
X120602D01*
X119884Y79703D01*
X119826Y79685D01*
X119264Y79799D01*
X119064Y80099D01*
X117114Y82048D01*
X117232Y82638D01*
X117633Y82805D01*
X117799Y82971D01*
X124500D01*
X125085Y83087D01*
X125581Y83419D01*
X128081Y85919D01*
X128413Y86415D01*
X128529Y87000D01*
Y95971D01*
X130063D01*
Y88677D01*
X139937D01*
Y98945D01*
X132303D01*
X132278Y98971D01*
X132487Y99471D01*
X153133D01*
X153718Y99587D01*
X154215Y99919D01*
X156844Y102548D01*
X157344Y102341D01*
Y101728D01*
X158389D01*
Y100000D01*
X158000D01*
Y95000D01*
X163000D01*
Y100000D01*
X161448D01*
Y101728D01*
X162494D01*
Y107272D01*
X157344D01*
Y106029D01*
X156633D01*
X156048Y105913D01*
X155552Y105581D01*
X155112Y105141D01*
X154650Y105333D01*
Y109362D01*
X146350D01*
Y102638D01*
X145895Y102529D01*
X139357D01*
X138902Y102638D01*
Y109362D01*
X130602D01*
Y104801D01*
X128331Y102529D01*
X128299D01*
X128133Y102696D01*
X127398Y103000D01*
X126602D01*
X126227Y102845D01*
X125845Y103227D01*
X126000Y103602D01*
Y104398D01*
X125872Y104706D01*
X126150Y105122D01*
X126673D01*
Y109878D01*
X121327D01*
Y105122D01*
X121850D01*
X122128Y104706D01*
X122000Y104398D01*
Y103602D01*
X122304Y102867D01*
X122867Y102304D01*
X123602Y102000D01*
X124398D01*
X124773Y102155D01*
X125155Y101772D01*
X125000Y101398D01*
Y100602D01*
X125304Y99867D01*
X125595Y99577D01*
X125637Y99517D01*
X125435Y99029D01*
X118000D01*
Y100000D01*
X115955D01*
X115913Y100214D01*
X115581Y100710D01*
X114792Y101500D01*
X114999Y102000D01*
X115398D01*
X116133Y102304D01*
X116695Y102867D01*
X117000Y103602D01*
Y104398D01*
X116872Y104706D01*
X117150Y105122D01*
X117840D01*
Y109878D01*
X112493D01*
Y105122D01*
X112850D01*
X113128Y104706D01*
X113000Y104398D01*
Y103999D01*
X112500Y103791D01*
X109007Y107285D01*
Y109878D01*
X103660D01*
Y107285D01*
X98905Y102529D01*
X95346D01*
X95154Y102991D01*
X97285Y105122D01*
X100173D01*
Y109878D01*
X94827D01*
Y106990D01*
X92366Y104529D01*
X70134D01*
X65926Y108737D01*
X66499Y109808D01*
X66899Y111128D01*
X67034Y112500D01*
Y115500D01*
X66899Y116872D01*
X66499Y118192D01*
X65848Y119408D01*
X64974Y120474D01*
X63908Y121349D01*
X62692Y121999D01*
X61372Y122399D01*
X60000Y122534D01*
X58628Y122399D01*
X57308Y121999D01*
X56707Y121677D01*
X55442Y122942D01*
X54780Y123384D01*
X54000Y123539D01*
X32500D01*
X31720Y123384D01*
X31058Y122942D01*
X27381Y119265D01*
X26939Y118603D01*
X26783Y117823D01*
Y112024D01*
X26939Y111244D01*
X27035Y111099D01*
Y107678D01*
X29594D01*
Y107678D01*
X29852D01*
Y104618D01*
X29969Y104033D01*
X30300Y103537D01*
X34919Y98919D01*
X35415Y98587D01*
X36000Y98471D01*
X42154D01*
X42346Y98009D01*
X40537Y96200D01*
X40205Y95704D01*
X40089Y95118D01*
Y94322D01*
X38288D01*
Y94323D01*
X35729D01*
Y94323D01*
X35349D01*
X35268Y94730D01*
X34936Y95226D01*
X34150Y96013D01*
X34035Y96090D01*
X33475Y96650D01*
X33195Y97324D01*
X32633Y97887D01*
X31898Y98191D01*
X31102D01*
X30367Y97887D01*
X29805Y97324D01*
X29500Y96589D01*
Y95793D01*
X29805Y95058D01*
X30040Y94823D01*
X29833Y94323D01*
X28840D01*
X28081Y95081D01*
X27585Y95413D01*
X27000Y95529D01*
X23000D01*
X22415Y95413D01*
X21919Y95081D01*
X12419Y85581D01*
X12087Y85085D01*
X11971Y84500D01*
Y82565D01*
X11471Y82358D01*
X11133Y82696D01*
X10398Y83000D01*
X9602D01*
X8867Y82696D01*
X8304Y82133D01*
X8089Y81612D01*
X3238Y76762D01*
X3000Y76405D01*
X2500Y76557D01*
Y132500D01*
X7500Y137500D01*
X191500D01*
X197500Y131500D01*
D02*
G37*
G36*
X100716Y99382D02*
Y94728D01*
X105865D01*
Y95971D01*
X107500D01*
Y95000D01*
X108471D01*
Y94500D01*
X108587Y93915D01*
X108919Y93419D01*
X110000Y92337D01*
Y92102D01*
X110164Y91706D01*
X109740Y91423D01*
X109081Y92081D01*
X108585Y92413D01*
X108000Y92529D01*
X82879D01*
X82293Y92413D01*
X81797Y92081D01*
X81485Y91770D01*
X80943Y91934D01*
X80913Y92085D01*
X80581Y92581D01*
X74773Y98390D01*
X74277Y98722D01*
X73691Y98838D01*
X72344D01*
X72256Y98971D01*
X72523Y99471D01*
X99538D01*
X100123Y99587D01*
X100216Y99649D01*
X100716Y99382D01*
D02*
G37*
G36*
X27036Y91801D02*
Y86659D01*
X24669D01*
X24633Y86695D01*
X23898Y87000D01*
X23102D01*
X22367Y86695D01*
X21804Y86133D01*
X21500Y85398D01*
Y84602D01*
X21804Y83867D01*
X22132Y83539D01*
X21925Y83039D01*
X17500D01*
X17303Y83000D01*
X17102D01*
X16917Y82923D01*
X16720Y82884D01*
X16553Y82772D01*
X16367Y82696D01*
X16225Y82553D01*
X16058Y82442D01*
X15947Y82275D01*
X15804Y82133D01*
X15728Y81947D01*
X15616Y81780D01*
X15577Y81583D01*
X15500Y81398D01*
X15029Y81469D01*
Y83867D01*
X23633Y92471D01*
X26366D01*
X27036Y91801D01*
D02*
G37*
G36*
X113000Y95000D02*
X118000D01*
Y95971D01*
X125471D01*
Y87634D01*
X123866Y86029D01*
X117799D01*
X117633Y86195D01*
X116898Y86500D01*
X116102D01*
X115367Y86195D01*
X114804Y85633D01*
X114638Y85232D01*
X114049Y85114D01*
X111849Y87314D01*
X111696Y87867D01*
X112000Y88602D01*
Y89398D01*
X111751Y90000D01*
X111928Y90384D01*
X112036Y90500D01*
X112398D01*
X113133Y90804D01*
X113696Y91367D01*
X114000Y92102D01*
Y92898D01*
X113696Y93633D01*
X113133Y94195D01*
X112613Y94411D01*
X112551Y94521D01*
X112500Y95000D01*
X112500D01*
Y97758D01*
X113000Y97980D01*
Y95000D01*
D02*
G37*
G36*
X76000Y84676D02*
Y83000D01*
X84184D01*
X84375Y82538D01*
X79419Y77581D01*
X79087Y77085D01*
X78971Y76500D01*
Y67969D01*
X78500Y67898D01*
X78196Y68633D01*
X77633Y69195D01*
X76898Y69500D01*
X76102D01*
X75367Y69195D01*
X75201Y69029D01*
X73969D01*
X73898Y69500D01*
X74633Y69805D01*
X75195Y70367D01*
X75500Y71102D01*
Y71898D01*
X75195Y72633D01*
X75029Y72799D01*
Y84670D01*
X75416Y84987D01*
X75500Y84971D01*
X75613Y84993D01*
X76000Y84676D01*
D02*
G37*
G36*
X68419Y101919D02*
X68571Y101816D01*
X68620Y101319D01*
X66919Y99617D01*
X66587Y99121D01*
X66471Y98536D01*
Y96268D01*
X66587Y95683D01*
X66919Y95186D01*
X71556Y90548D01*
Y88914D01*
X71673Y88329D01*
X71971Y87883D01*
Y85133D01*
X67866Y81029D01*
X66500D01*
X66352Y81000D01*
X63000D01*
Y78000D01*
Y74695D01*
X62538Y74503D01*
X62151Y74890D01*
X61655Y75222D01*
X61070Y75338D01*
X60490D01*
X60133Y75696D01*
X59398Y76000D01*
X58602D01*
X57867Y75696D01*
X57305Y75133D01*
X57000Y74398D01*
Y74355D01*
X56818Y74236D01*
X56500Y74163D01*
X56000Y74663D01*
Y77500D01*
X51000D01*
Y74663D01*
X47837Y71500D01*
X47102D01*
X46367Y71196D01*
X45805Y70633D01*
X45500Y69898D01*
Y69102D01*
X45805Y68367D01*
X46367Y67804D01*
X47102Y67500D01*
X47898D01*
X48633Y67804D01*
X49196Y68367D01*
X49313Y68650D01*
X53163Y72500D01*
X53837D01*
X53971Y72366D01*
Y71469D01*
X53319D01*
Y65256D01*
X57681D01*
Y68553D01*
X58097Y68831D01*
X58334Y68732D01*
X59130D01*
X59865Y69037D01*
X60223Y69394D01*
X60493D01*
X61469Y68419D01*
X61965Y68087D01*
X62550Y67971D01*
X63000D01*
Y66000D01*
Y62000D01*
Y58000D01*
X69630D01*
X69837Y57500D01*
X69367Y57029D01*
X66500D01*
X66352Y57000D01*
X63000D01*
X62687Y57370D01*
X62581Y57528D01*
X61996Y58113D01*
X61500Y58445D01*
X61421Y58460D01*
Y61745D01*
X57059D01*
Y57695D01*
X56919Y57554D01*
X56587Y57058D01*
X56471Y56473D01*
Y54500D01*
X55500D01*
Y49500D01*
X59971D01*
Y49000D01*
X55500D01*
Y48701D01*
X55084Y48423D01*
X54898Y48500D01*
X54102D01*
X53857Y48399D01*
X53357Y48733D01*
Y49000D01*
X48357D01*
Y48029D01*
X46214D01*
Y49000D01*
X44061D01*
X43825Y49441D01*
X43865Y49500D01*
X46214D01*
Y54500D01*
X45244D01*
Y55054D01*
X45722Y55532D01*
X47921D01*
Y61745D01*
X43559D01*
Y57695D01*
X42633Y56769D01*
X42301Y56272D01*
X42185Y55687D01*
Y54500D01*
X41214D01*
Y51663D01*
X39633Y50081D01*
X39571Y49990D01*
X39071Y50141D01*
Y54500D01*
X37969D01*
Y55259D01*
X38242Y55532D01*
X40441D01*
Y61745D01*
X36079D01*
Y57695D01*
X35358Y56974D01*
X35026Y56478D01*
X34921Y55950D01*
X34421Y55999D01*
Y61745D01*
X30059D01*
Y58447D01*
X30049Y58445D01*
X29553Y58113D01*
X28488Y57049D01*
X28157Y56553D01*
X28040Y55968D01*
Y54500D01*
X26929D01*
Y49500D01*
X29278D01*
X29318Y49441D01*
X29082Y49000D01*
X26929D01*
Y44673D01*
X26467Y44482D01*
X24786Y46163D01*
Y49000D01*
X19786D01*
Y44673D01*
X19324Y44482D01*
X17643Y46163D01*
Y49000D01*
X15489D01*
X15254Y49441D01*
X15293Y49500D01*
X17643D01*
Y54500D01*
X17459D01*
X17268Y54962D01*
X17808Y55503D01*
X18059D01*
X18207Y55532D01*
X20516D01*
X20756Y55239D01*
Y54500D01*
X19786D01*
Y49500D01*
X24786D01*
Y54500D01*
X24417D01*
X24210Y55000D01*
X24742Y55532D01*
X26941D01*
Y61745D01*
X22579D01*
Y57695D01*
X21421Y56537D01*
X20921Y56745D01*
Y61745D01*
X16559D01*
Y58425D01*
X16093Y58113D01*
X14061Y56081D01*
X13941Y55901D01*
X13441Y56053D01*
Y61745D01*
X9079D01*
Y58199D01*
X8951Y58113D01*
X6919Y56081D01*
X6784Y55880D01*
X6284Y56032D01*
Y74761D01*
X10612Y79089D01*
X11133Y79304D01*
X11471Y79642D01*
X11971Y79435D01*
Y70788D01*
X12087Y70203D01*
X12419Y69706D01*
X12819Y69306D01*
Y65256D01*
X17181D01*
Y69306D01*
X20117Y72242D01*
X20500Y72500D01*
Y72500D01*
X20500Y72500D01*
X25500D01*
Y73803D01*
X26000Y73852D01*
X26087Y73415D01*
X26419Y72919D01*
X26971Y72366D01*
Y71469D01*
X26319D01*
Y65256D01*
X30681D01*
Y71469D01*
X30029D01*
Y72275D01*
X30434Y72596D01*
X30667Y72500D01*
Y72500D01*
X35667D01*
Y77500D01*
X30667D01*
Y76529D01*
X30500D01*
X29915Y76413D01*
X29695Y76266D01*
X29291Y76597D01*
X29500Y77102D01*
Y77898D01*
X29439Y78045D01*
X29717Y78461D01*
X30667D01*
Y78000D01*
X35667D01*
Y78461D01*
X36458D01*
X36500Y78398D01*
Y77602D01*
X36805Y76867D01*
X37367Y76305D01*
X38102Y76000D01*
X38337D01*
X39838Y74499D01*
X40334Y74168D01*
X40561Y74123D01*
X40471Y73667D01*
Y71469D01*
X39819D01*
Y65256D01*
X44181D01*
Y71469D01*
X43529D01*
Y72500D01*
X45833D01*
Y77500D01*
X41613D01*
X41880Y78000D01*
X45833D01*
Y78461D01*
X51000D01*
Y78000D01*
X56000D01*
Y80116D01*
X61442Y85558D01*
X61884Y86220D01*
X62039Y87000D01*
X62039Y87000D01*
Y105804D01*
X62692Y106001D01*
X63763Y106574D01*
X68419Y101919D01*
D02*
G37*
G36*
X172746Y85414D02*
Y79414D01*
X171246Y77914D01*
X168246D01*
X166746Y79414D01*
Y85414D01*
X168246Y86914D01*
X171246D01*
X172746Y85414D01*
D02*
G37*
G36*
X130063Y72963D02*
Y66500D01*
X129602D01*
X128867Y66195D01*
X128474Y65803D01*
X127935Y65949D01*
X127919Y66029D01*
X127588Y66525D01*
X118871Y75242D01*
X118968Y75732D01*
X119125Y75797D01*
X119688Y76360D01*
X120157Y76184D01*
X120602Y76000D01*
X121398D01*
X122133Y76305D01*
X122299Y76471D01*
X126556D01*
X130063Y72963D01*
D02*
G37*
G36*
X15577Y80417D02*
X15616Y80220D01*
X15728Y80053D01*
X15804Y79867D01*
X15947Y79725D01*
X16058Y79558D01*
X16225Y79447D01*
X16367Y79304D01*
X16553Y79228D01*
X16720Y79116D01*
X16917Y79077D01*
X17102Y79000D01*
X17303D01*
X17500Y78961D01*
X20500D01*
Y78000D01*
X24664D01*
X24997Y77628D01*
X24983Y77500D01*
X20500D01*
Y76029D01*
X20212D01*
X19627Y75913D01*
X19131Y75581D01*
X15491Y71942D01*
X15029Y72133D01*
Y80531D01*
X15500Y80602D01*
X15577Y80417D01*
D02*
G37*
G36*
X98500Y76789D02*
Y76602D01*
X98804Y75867D01*
X98971Y75701D01*
Y72379D01*
X99087Y71793D01*
X99419Y71297D01*
X106297Y64419D01*
X106793Y64087D01*
X107000Y64046D01*
Y61029D01*
X103500D01*
X102915Y60913D01*
X102419Y60581D01*
X99419Y57581D01*
X99087Y57085D01*
X98971Y56500D01*
Y52967D01*
X98509Y52776D01*
X97203Y54081D01*
X96707Y54413D01*
X96121Y54529D01*
X86299D01*
X86133Y54695D01*
X85398Y55000D01*
X84602D01*
X84445Y54935D01*
X84029Y55213D01*
Y68787D01*
X84445Y69065D01*
X84602Y69000D01*
X85398D01*
X86133Y69305D01*
X86695Y69867D01*
X87000Y70602D01*
Y71398D01*
X86695Y72133D01*
X86529Y72299D01*
Y74710D01*
X88790Y76971D01*
X98278D01*
X98500Y76789D01*
D02*
G37*
G36*
X78971Y67031D02*
Y54912D01*
X75962Y51903D01*
X75427Y52075D01*
X75195Y52633D01*
X74633Y53196D01*
X73898Y53500D01*
X73102D01*
X72367Y53196D01*
X72010Y52838D01*
X71430D01*
X70845Y52722D01*
X70500Y52491D01*
X70000Y52700D01*
Y53971D01*
X70585Y54087D01*
X71081Y54419D01*
X74581Y57919D01*
X74913Y58415D01*
X75029Y59000D01*
Y63201D01*
X75195Y63367D01*
X75500Y64102D01*
Y64898D01*
X75345Y65272D01*
X75727Y65655D01*
X76102Y65500D01*
X76898D01*
X77633Y65804D01*
X78196Y66367D01*
X78500Y67102D01*
X78971Y67031D01*
D02*
G37*
G36*
X124977Y64810D02*
Y61575D01*
X125006Y61427D01*
Y57728D01*
X130156D01*
Y61120D01*
X130616Y61321D01*
X130925Y61070D01*
Y57728D01*
X131971D01*
Y56272D01*
X130925D01*
Y52891D01*
X129792Y51758D01*
X124708D01*
X123575Y52891D01*
Y56272D01*
X119029D01*
Y62866D01*
X120163Y64000D01*
X120398D01*
X121133Y64305D01*
X121695Y64867D01*
X122000Y65602D01*
Y66398D01*
X121695Y67133D01*
X121133Y67695D01*
X120398Y68000D01*
X119602D01*
X118867Y67695D01*
X118305Y67133D01*
X118000Y66398D01*
Y66163D01*
X117491Y65654D01*
X117029Y65846D01*
Y72104D01*
X117491Y72295D01*
X124977Y64810D01*
D02*
G37*
G36*
X100496Y46462D02*
X100305Y46000D01*
X80695D01*
X80503Y46462D01*
X85042Y51000D01*
X85398D01*
X86133Y51305D01*
X86299Y51471D01*
X95488D01*
X100496Y46462D01*
D02*
G37*
G36*
X39071Y44000D02*
X39405Y43638D01*
X39633Y43297D01*
X40512Y42419D01*
X41008Y42087D01*
X41593Y41971D01*
X45836D01*
X46278Y42059D01*
X46919Y41419D01*
X47415Y41087D01*
X48000Y40971D01*
X68379D01*
X68964Y41087D01*
X69460Y41419D01*
X71538Y43497D01*
X72000Y43305D01*
Y42648D01*
X71971Y42500D01*
Y41133D01*
X70367Y39529D01*
X38065D01*
X37858Y40029D01*
X38195Y40367D01*
X38500Y41102D01*
Y41898D01*
X38195Y42633D01*
X38029Y42799D01*
Y43646D01*
X38383Y44000D01*
X39071Y44000D01*
D02*
G37*
G36*
X28367Y39805D02*
X29102Y39500D01*
X29898D01*
X30633Y39805D01*
X30971Y40142D01*
X31324Y40042D01*
X31481Y39946D01*
X31587Y39415D01*
X31919Y38919D01*
X33919Y36919D01*
X34415Y36587D01*
X35000Y36471D01*
X62951D01*
X63000Y36398D01*
Y35602D01*
X63305Y34867D01*
X63867Y34304D01*
X64602Y34000D01*
X65398D01*
X66133Y34304D01*
X66366Y34261D01*
X66533Y33721D01*
X66457Y33645D01*
X65930Y32733D01*
X65658Y31715D01*
Y30662D01*
X65858Y29913D01*
X61230Y25284D01*
X34428D01*
X29799Y29913D01*
X30000Y30662D01*
Y31715D01*
X29727Y32733D01*
X29201Y33645D01*
X28456Y34389D01*
X27544Y34916D01*
X26527Y35189D01*
X25473D01*
X24456Y34916D01*
X23544Y34389D01*
X22799Y33645D01*
X22273Y32733D01*
X22000Y31715D01*
Y30662D01*
X22273Y29645D01*
X22799Y28733D01*
X23544Y27988D01*
X24456Y27461D01*
X25473Y27189D01*
X26527D01*
X27276Y27389D01*
X28919Y25746D01*
X28728Y25284D01*
X15275D01*
X9297Y31262D01*
X8718Y31648D01*
X8036Y31784D01*
X6703D01*
X6284Y32204D01*
Y36932D01*
X6784Y37084D01*
X6919Y36883D01*
X8883Y34919D01*
X9379Y34587D01*
X9965Y34471D01*
X14260D01*
X14845Y34587D01*
X15342Y34919D01*
X20585Y40162D01*
X28010D01*
X28367Y39805D01*
D02*
G37*
G36*
X137722Y46919D02*
X138218Y46587D01*
X138803Y46471D01*
X146201D01*
X146367Y46305D01*
X147102Y46000D01*
X147679D01*
X147886Y45500D01*
X133915Y31529D01*
X124299D01*
X124133Y31696D01*
X123398Y32000D01*
X122602D01*
X121867Y31696D01*
X121305Y31133D01*
X121000Y30398D01*
Y29602D01*
X121305Y28867D01*
X121867Y28304D01*
X122602Y28000D01*
X123398D01*
X124133Y28304D01*
X124299Y28471D01*
X134549D01*
X135134Y28587D01*
X135630Y28919D01*
X155503Y48791D01*
X155965Y48600D01*
Y43186D01*
X133110Y20331D01*
X125606D01*
X125317Y20831D01*
X125689Y21474D01*
X125958Y22480D01*
Y23520D01*
X125689Y24526D01*
X125168Y25427D01*
X124432Y26163D01*
X123531Y26684D01*
X122525Y26953D01*
X121485D01*
X120483Y26685D01*
X119029Y28139D01*
Y35531D01*
X119500Y35602D01*
X119805Y34867D01*
X120367Y34304D01*
X121102Y34000D01*
X121898D01*
X122633Y34304D01*
X123196Y34867D01*
X123500Y35602D01*
Y36398D01*
X123196Y37133D01*
X123029Y37299D01*
Y43500D01*
X124000D01*
Y48213D01*
X124048Y48523D01*
X124418Y48699D01*
X130425D01*
X131010Y48815D01*
X131507Y49147D01*
X133088Y50728D01*
X133912D01*
X137722Y46919D01*
D02*
G37*
G36*
X98048Y24790D02*
Y20331D01*
X67661D01*
X64492Y23500D01*
X68382Y27389D01*
X69131Y27189D01*
X70184D01*
X71201Y27461D01*
X72114Y27988D01*
X72858Y28733D01*
X73385Y29645D01*
X73658Y30662D01*
Y31715D01*
X73385Y32733D01*
X72858Y33645D01*
X72532Y33971D01*
X72740Y34471D01*
X76418D01*
X76625Y33971D01*
X76299Y33645D01*
X75773Y32733D01*
X75500Y31715D01*
Y30662D01*
X75773Y29645D01*
X76299Y28733D01*
X77044Y27988D01*
X77956Y27461D01*
X78973Y27189D01*
X80027D01*
X81044Y27461D01*
X81956Y27988D01*
X82701Y28733D01*
X83227Y29645D01*
X83500Y30662D01*
Y31715D01*
X83227Y32733D01*
X82701Y33645D01*
X82375Y33971D01*
X82582Y34471D01*
X88367D01*
X98048Y24790D01*
D02*
G37*
G36*
X93971Y38000D02*
X94087Y37415D01*
X94419Y36919D01*
X98919Y32419D01*
X99415Y32087D01*
X100000Y31971D01*
X110500D01*
X111085Y32087D01*
X111581Y32419D01*
X112163Y33000D01*
X112398D01*
X113133Y33305D01*
X113471Y33642D01*
X113971Y33435D01*
Y27288D01*
X113367Y26685D01*
X112365Y26953D01*
X111325D01*
X110319Y26684D01*
X109418Y26163D01*
X108682Y25427D01*
X108161Y24526D01*
X107892Y23520D01*
Y22480D01*
X108161Y21474D01*
X108533Y20831D01*
X108244Y20331D01*
X105953D01*
Y26952D01*
X100210D01*
X90081Y37081D01*
X89585Y37413D01*
X89000Y37529D01*
X79412D01*
X79001Y38029D01*
X79029Y38172D01*
Y39000D01*
X93971D01*
Y38000D01*
D02*
G37*
%LPC*%
G36*
X185466Y123460D02*
X184613D01*
X184514Y123441D01*
X184414D01*
X183577Y123275D01*
X183484Y123236D01*
X183386Y123216D01*
X182598Y122890D01*
X182514Y122834D01*
X182422Y122796D01*
X181712Y122322D01*
X181641Y122251D01*
X181558Y122195D01*
X180955Y121592D01*
X180899Y121508D01*
X180828Y121437D01*
X180354Y120728D01*
X180315Y120635D01*
X180260Y120552D01*
X179933Y119764D01*
X179913Y119665D01*
X179875Y119572D01*
X179709Y118736D01*
Y118635D01*
X179689Y118537D01*
Y117684D01*
X179709Y117585D01*
Y117485D01*
X179875Y116648D01*
X179913Y116555D01*
X179933Y116457D01*
X180260Y115669D01*
X180315Y115585D01*
X180354Y115492D01*
X180828Y114783D01*
X180899Y114712D01*
X180955Y114629D01*
X181558Y114025D01*
X181641Y113970D01*
X181712Y113899D01*
X182422Y113425D01*
X182514Y113386D01*
X182598Y113330D01*
X183386Y113004D01*
X183484Y112984D01*
X183577Y112946D01*
X184414Y112779D01*
X184514D01*
X184613Y112760D01*
X185466D01*
X185564Y112779D01*
X185665D01*
X186502Y112946D01*
X186594Y112984D01*
X186693Y113004D01*
X187481Y113330D01*
X187564Y113386D01*
X187657Y113425D01*
X188366Y113899D01*
X188437Y113970D01*
X188521Y114025D01*
X189124Y114629D01*
X189180Y114712D01*
X189251Y114783D01*
X189725Y115492D01*
X189763Y115585D01*
X189819Y115669D01*
X190146Y116457D01*
X190165Y116555D01*
X190204Y116648D01*
X190370Y117485D01*
Y117585D01*
X190390Y117684D01*
Y118537D01*
X190370Y118635D01*
Y118736D01*
X190204Y119572D01*
X190165Y119665D01*
X190146Y119764D01*
X189819Y120552D01*
X189763Y120635D01*
X189725Y120728D01*
X189251Y121437D01*
X189180Y121508D01*
X189124Y121592D01*
X188521Y122195D01*
X188437Y122251D01*
X188366Y122322D01*
X187657Y122796D01*
X187564Y122834D01*
X187481Y122890D01*
X186693Y123216D01*
X186594Y123236D01*
X186502Y123275D01*
X185665Y123441D01*
X185564D01*
X185466Y123460D01*
D02*
G37*
G36*
X16175D02*
X15322D01*
X15223Y123441D01*
X15123D01*
X14286Y123275D01*
X14193Y123236D01*
X14095Y123216D01*
X13307Y122890D01*
X13223Y122834D01*
X13130Y122796D01*
X12421Y122322D01*
X12350Y122251D01*
X12266Y122195D01*
X11663Y121592D01*
X11607Y121508D01*
X11536Y121437D01*
X11062Y120728D01*
X11024Y120635D01*
X10968Y120552D01*
X10642Y119764D01*
X10622Y119665D01*
X10584Y119572D01*
X10417Y118736D01*
Y118635D01*
X10398Y118537D01*
Y117684D01*
X10417Y117585D01*
Y117485D01*
X10584Y116648D01*
X10622Y116555D01*
X10642Y116457D01*
X10968Y115669D01*
X11024Y115585D01*
X11062Y115492D01*
X11536Y114783D01*
X11607Y114712D01*
X11663Y114629D01*
X12266Y114025D01*
X12350Y113970D01*
X12421Y113899D01*
X13130Y113425D01*
X13223Y113386D01*
X13307Y113330D01*
X14095Y113004D01*
X14193Y112984D01*
X14286Y112946D01*
X15123Y112779D01*
X15223D01*
X15322Y112760D01*
X16175D01*
X16273Y112779D01*
X16374D01*
X17210Y112946D01*
X17303Y112984D01*
X17401Y113004D01*
X18190Y113330D01*
X18273Y113386D01*
X18366Y113425D01*
X19075Y113899D01*
X19146Y113970D01*
X19230Y114025D01*
X19833Y114629D01*
X19889Y114712D01*
X19960Y114783D01*
X20434Y115492D01*
X20472Y115585D01*
X20528Y115669D01*
X20854Y116457D01*
X20874Y116555D01*
X20912Y116648D01*
X21079Y117485D01*
Y117585D01*
X21098Y117684D01*
Y118537D01*
X21079Y118635D01*
Y118736D01*
X20912Y119572D01*
X20874Y119665D01*
X20854Y119764D01*
X20528Y120552D01*
X20472Y120635D01*
X20434Y120728D01*
X19960Y121437D01*
X19889Y121508D01*
X19833Y121592D01*
X19230Y122195D01*
X19146Y122251D01*
X19075Y122322D01*
X18366Y122796D01*
X18273Y122834D01*
X18190Y122890D01*
X17401Y123216D01*
X17303Y123236D01*
X17210Y123275D01*
X16374Y123441D01*
X16273D01*
X16175Y123460D01*
D02*
G37*
G36*
X138902Y118811D02*
X130602D01*
Y112087D01*
X138902D01*
Y118811D01*
D02*
G37*
G36*
X154650D02*
X146350D01*
Y112087D01*
X154650D01*
Y113919D01*
X155449D01*
X156034Y114036D01*
X156530Y114367D01*
X156663Y114500D01*
X156898D01*
X157633Y114804D01*
X157799Y114971D01*
X158367D01*
X158471Y114866D01*
Y113772D01*
X157396D01*
Y108228D01*
X162546D01*
Y113772D01*
X161529D01*
Y115500D01*
X161413Y116085D01*
X161081Y116581D01*
X160081Y117581D01*
X159585Y117913D01*
X159000Y118029D01*
X157799D01*
X157633Y118195D01*
X156898Y118500D01*
X156102D01*
X155367Y118195D01*
X155150Y117978D01*
X154650Y118185D01*
Y118811D01*
D02*
G37*
G36*
X168500Y100000D02*
X163500D01*
Y95000D01*
X168500D01*
Y95971D01*
X169701D01*
X169867Y95805D01*
X170602Y95500D01*
X171398D01*
X172133Y95805D01*
X172696Y96367D01*
X173000Y97102D01*
Y97898D01*
X172696Y98633D01*
X172133Y99195D01*
X171398Y99500D01*
X170602D01*
X169867Y99195D01*
X169701Y99029D01*
X168500D01*
Y100000D01*
D02*
G37*
G36*
X165527Y36500D02*
X164473D01*
X163456Y36227D01*
X162544Y35701D01*
X161799Y34956D01*
X161273Y34044D01*
X161000Y33027D01*
Y31973D01*
X161273Y30956D01*
X161799Y30044D01*
X162544Y29299D01*
X163456Y28773D01*
X164473Y28500D01*
X165527D01*
X166544Y28773D01*
X167456Y29299D01*
X168201Y30044D01*
X168727Y30956D01*
X169000Y31973D01*
Y33027D01*
X168727Y34044D01*
X168201Y34956D01*
X167456Y35701D01*
X166544Y36227D01*
X165527Y36500D01*
D02*
G37*
G36*
X53941Y61745D02*
X49579D01*
Y57597D01*
X49444Y57396D01*
X49328Y56810D01*
Y54500D01*
X48357D01*
Y49500D01*
X53357D01*
Y54500D01*
X52386D01*
Y55532D01*
X53941D01*
Y61745D01*
D02*
G37*
G36*
X36369Y35189D02*
X35316D01*
X34299Y34916D01*
X33386Y34389D01*
X32642Y33645D01*
X32115Y32733D01*
X31842Y31715D01*
Y30662D01*
X32115Y29645D01*
X32642Y28733D01*
X33386Y27988D01*
X34299Y27461D01*
X35316Y27189D01*
X36369D01*
X37386Y27461D01*
X38299Y27988D01*
X39043Y28733D01*
X39570Y29645D01*
X39843Y30662D01*
Y31715D01*
X39570Y32733D01*
X39043Y33645D01*
X38299Y34389D01*
X37386Y34916D01*
X36369Y35189D01*
D02*
G37*
%LPD*%
D11*
X22500Y81000D02*
X23000Y80500D01*
X13500Y70788D02*
Y84500D01*
Y70788D02*
X15000Y69288D01*
X13500Y84500D02*
X23000Y94000D01*
X15000Y68363D02*
Y69288D01*
X20212Y74500D01*
X27500Y74000D02*
X28500Y73000D01*
X27500Y74000D02*
Y77500D01*
X74121Y36000D02*
X75328D01*
X74500Y38000D02*
X75500Y39000D01*
X75328Y36000D02*
X77500Y38172D01*
X75328Y36000D02*
X89000D01*
X75500Y39000D02*
Y42500D01*
X77500Y38172D02*
Y45621D01*
X73500Y84500D02*
Y88500D01*
X75500Y86500D02*
Y90328D01*
X73086Y88914D02*
X73500Y88500D01*
X75500Y90328D02*
X75586Y90414D01*
X68000Y96268D02*
X73086Y91182D01*
Y88914D02*
Y91182D01*
X73691Y97309D02*
X79500Y91500D01*
Y86500D02*
Y91500D01*
X70691Y97309D02*
X73691D01*
X163589Y43754D02*
Y53991D01*
X96327Y106327D02*
Y106622D01*
X97205Y107500D01*
X97500D01*
X69500Y103000D02*
X93000D01*
X96327Y106327D01*
X60000Y112500D02*
X69500Y103000D01*
X68000Y98536D02*
X70464Y101000D01*
X99538D01*
X60000Y112500D02*
Y114000D01*
Y115500D01*
X38500Y118000D02*
X39000D01*
X36771Y116271D02*
X38500Y118000D01*
X40000D02*
X41618Y116382D01*
X39000Y118000D02*
X40000D01*
X41618Y112024D02*
Y116382D01*
X45594Y116000D02*
X46500D01*
X44177Y114583D02*
X45594Y116000D01*
X89000Y36000D02*
X102000Y23000D01*
X163589Y53991D02*
Y54877D01*
X147500Y48000D02*
Y48222D01*
X133500Y53303D02*
X138803Y48000D01*
X147500D01*
Y48222D02*
X152581Y53303D01*
X22500Y74500D02*
X23000Y75000D01*
X20212Y74500D02*
X22500D01*
X28823Y89976D02*
Y92535D01*
X28536Y92823D02*
X28823Y92535D01*
X28177Y92823D02*
X28536D01*
X23000Y94000D02*
X27000D01*
X28177Y92823D01*
X82500Y53450D02*
Y75672D01*
X88157Y78500D02*
X98278D01*
X85000Y75343D02*
X88157Y78500D01*
X86500Y82500D02*
X96621D01*
X80500Y54278D02*
Y76500D01*
X82500Y75672D02*
X87328Y80500D01*
X97450D01*
X85000Y71000D02*
Y75343D01*
X80500Y76500D02*
X86500Y82500D01*
X99538Y101000D02*
X106038Y107500D01*
X70500Y97500D02*
X70691Y97309D01*
X68000Y96268D02*
Y98536D01*
X106038Y107500D02*
X106333D01*
X110000Y79500D02*
Y82500D01*
Y79500D02*
X110500D01*
X117982Y77503D02*
Y79018D01*
X103500Y86500D02*
X110500D01*
X117982Y77503D02*
X117993Y77493D01*
X110500Y86500D02*
X117982Y79018D01*
X116500Y84500D02*
X124500D01*
X127000Y87000D02*
Y97500D01*
X124500Y84500D02*
X127000Y87000D01*
X99278Y79500D02*
X103000D01*
X107000Y83500D01*
X8000Y37964D02*
X9965Y36000D01*
X14260D01*
X19951Y41691D01*
X8000Y37964D02*
Y46500D01*
X11000Y38500D02*
Y47857D01*
X19951Y41691D02*
X27094D01*
X15143Y46500D02*
X19951Y41691D01*
X29309D02*
X29500Y41500D01*
X22286Y46500D02*
X27094Y41691D01*
X29309D01*
X36500Y46429D02*
X36571Y46500D01*
X36500Y41500D02*
Y46429D01*
X29429Y46500D02*
X29500Y46429D01*
Y41500D02*
Y46429D01*
X43714Y46500D02*
X50857D01*
X46832Y43668D02*
X48000Y42500D01*
X40714Y44379D02*
Y49000D01*
X41593Y43500D02*
X45836D01*
X46004Y43668D02*
X46832D01*
X40714Y49000D02*
X43714Y52000D01*
X40714Y44379D02*
X41593Y43500D01*
X45836D02*
X46004Y43668D01*
X50857Y46500D02*
X54500D01*
X58000D01*
X65000Y36000D02*
X74121D01*
X111000Y39035D02*
Y43778D01*
X107500Y39000D02*
Y44450D01*
X85000Y53000D02*
X96121D01*
X103500Y45621D01*
Y42500D02*
Y45621D01*
X102500Y52278D02*
Y55672D01*
Y52278D02*
X111000Y43778D01*
X100500Y51450D02*
Y56500D01*
Y51450D02*
X107500Y44450D01*
X124075Y50228D02*
X130425D01*
X133500Y53303D02*
Y53500D01*
X130425Y50228D02*
X133500Y53303D01*
X121000D02*
X124075Y50228D01*
X121000Y53303D02*
Y53500D01*
X152581Y53303D02*
Y53500D01*
X133500D02*
Y60500D01*
X130191Y64006D02*
Y64309D01*
X133500Y60500D02*
Y60697D01*
X130191Y64006D02*
X133500Y60697D01*
X130000Y64500D02*
X130191Y64309D01*
X127000Y97500D02*
X131508D01*
X115500D02*
X127000D01*
X167451Y50129D02*
X181013D01*
X163589Y55762D02*
X169746Y61920D01*
X163589Y54877D02*
Y55762D01*
X169746Y61920D02*
Y74075D01*
X181013Y50129D02*
X184303Y53419D01*
X184500D01*
X163589Y53991D02*
X167451Y50129D01*
X163589Y43754D02*
X174843Y32500D01*
X84879Y53000D02*
X85000D01*
X77500Y45621D02*
X84879Y53000D01*
X74722Y48500D02*
X80500Y54278D01*
X72379Y46500D02*
X75550D01*
X71550Y48500D02*
X74722D01*
X75550Y46500D02*
X82500Y53450D01*
X70000Y55500D02*
X73500Y59000D01*
Y64500D01*
X66500Y55500D02*
X70000D01*
X73500Y71500D02*
Y84500D01*
X66500Y79500D02*
X68500D01*
X73500Y84500D01*
X121000Y78000D02*
X127189D01*
X131508Y97500D02*
X135000Y94008D01*
Y93811D02*
Y94008D01*
X114500Y98500D02*
X115500Y97500D01*
X106629Y107500D02*
X114500Y99629D01*
Y98500D02*
Y99629D01*
X106333Y107500D02*
X106629D01*
X101500Y37000D02*
Y42500D01*
X95500Y38000D02*
X100000Y33500D01*
X110500D02*
X112000Y35000D01*
X100000Y33500D02*
X110500D01*
X95500Y38000D02*
Y42500D01*
X152581Y60303D02*
X155656Y57228D01*
X134549Y30000D02*
X155656Y51107D01*
X152581Y60303D02*
Y60500D01*
X155656Y51107D02*
Y57228D01*
X123000Y30000D02*
X134549D01*
X121500Y36000D02*
Y46000D01*
X111000Y39035D02*
X111018Y39018D01*
X115500Y26655D02*
Y73621D01*
X117500Y27505D02*
Y63500D01*
X111845Y23000D02*
X115500Y26655D01*
X117500Y63500D02*
X120000Y66000D01*
X113621Y75500D02*
X115500Y73621D01*
X117500Y27505D02*
X122005Y23000D01*
X11000Y47857D02*
X15143Y52000D01*
X69621Y49500D02*
X71430Y51309D01*
X66500Y49500D02*
X69621D01*
X71430Y51309D02*
X73309D01*
X73500Y51500D01*
X63500Y46000D02*
X69050D01*
X61500Y48000D02*
Y56446D01*
Y48000D02*
X63500Y46000D01*
X59921Y57032D02*
X60914D01*
X59240Y57713D02*
X59921Y57032D01*
X60914D02*
X61500Y56446D01*
X48000Y42500D02*
X68379D01*
X69050Y46000D02*
X71550Y48500D01*
X68379Y42500D02*
X72379Y46500D01*
X38500Y78000D02*
X40919Y75581D01*
X33031Y94931D02*
X33069D01*
X31500Y96191D02*
X31771D01*
X33031Y94931D01*
X33069D02*
X33855Y94145D01*
X23630Y85130D02*
X32533D01*
X23500Y85000D02*
X23630Y85130D01*
X35000Y38000D02*
X71000D01*
X73500Y40500D01*
Y42500D01*
X33000Y40000D02*
X35000Y38000D01*
X33000Y40000D02*
Y48429D01*
X29429Y52000D02*
X33000Y48429D01*
X33855Y90062D02*
X33941Y89976D01*
X33855Y90062D02*
Y94145D01*
X126506Y61575D02*
Y65443D01*
X114450Y77500D02*
X126506Y65443D01*
X66500Y67500D02*
X76500D01*
X98450Y81500D02*
X99500Y82550D01*
X98278Y78500D02*
X99278Y79500D01*
X97500Y83379D02*
Y86500D01*
X97450Y80500D02*
X98450Y81500D01*
X96621Y82500D02*
X97500Y83379D01*
X47500Y69500D02*
X47691Y69691D01*
X48191D02*
X53500Y75000D01*
X47691Y69691D02*
X48191D01*
X42752Y75581D02*
X43333Y75000D01*
X40919Y75581D02*
X42752D01*
X40500Y105000D02*
X41500D01*
X39059Y106441D02*
X40500Y105000D01*
X39059Y106441D02*
Y112024D01*
X31382Y104618D02*
X36000Y100000D01*
X37000Y102500D02*
X51500D01*
X33941Y105559D02*
X37000Y102500D01*
X51500D02*
X56500Y97500D01*
X36000Y100000D02*
X48000D01*
X33941Y105559D02*
Y112024D01*
X44177Y112024D02*
Y114583D01*
X104328Y57500D02*
X110500D01*
X102500Y55672D02*
X104328Y57500D01*
X100500Y56500D02*
X103500Y59500D01*
X110500D01*
Y75500D02*
X113621D01*
X110500Y77500D02*
X114450D01*
X99500Y82550D02*
Y86500D01*
X39331Y86008D02*
Y89704D01*
X39059Y89976D02*
X39331Y89704D01*
Y86008D02*
X40339Y85000D01*
X52000D01*
X59000Y74000D02*
X59191Y73809D01*
X61070D01*
X104000Y72500D02*
X104271D01*
X105271Y71500D02*
X110500D01*
X106535Y73500D02*
X110500D01*
X104191Y75844D02*
Y76809D01*
Y75844D02*
X106535Y73500D01*
X104271Y72500D02*
X105271Y71500D01*
X104000Y77000D02*
X104191Y76809D01*
X100500Y72379D02*
Y77000D01*
Y72379D02*
X107379Y65500D01*
X110500D01*
X60974Y70924D02*
X61050Y71000D01*
X58924Y70924D02*
X60974D01*
X58732Y70732D02*
X58924Y70924D01*
X36229Y89704D02*
X36500Y89976D01*
X36229Y86008D02*
Y89704D01*
X35350Y85130D02*
X36229Y86008D01*
X32533Y85130D02*
X35350D01*
X31654Y86008D02*
X32533Y85130D01*
X31654Y86008D02*
Y89705D01*
X31382Y89976D02*
X31654Y89705D01*
X36771Y112296D02*
Y116271D01*
X36500Y112024D02*
X36771Y112296D01*
X126506Y61575D02*
X127581Y60500D01*
X110000Y94500D02*
Y97500D01*
Y94500D02*
X112000Y92500D01*
X43922Y97422D02*
X51922D01*
X103291Y97303D02*
Y97500D01*
X81500Y89621D02*
X82879Y91000D01*
X108000D02*
X110000Y89000D01*
X82879Y91000D02*
X108000D01*
X31382Y104618D02*
Y112024D01*
X41618Y95118D02*
X43922Y97422D01*
X41618Y89976D02*
Y95118D01*
X124000Y104000D02*
Y107500D01*
X124000Y107500D02*
X124000Y107500D01*
X115000Y104000D02*
Y107333D01*
X115167Y107500D01*
X81500Y86500D02*
Y89621D01*
X127189Y78000D02*
X131366Y73823D01*
X135000Y70189D02*
Y70386D01*
X131563Y73823D02*
X135000Y70386D01*
X131366Y73823D02*
X131563D01*
X135000Y70189D02*
X145189D01*
X154000Y79000D01*
X103291Y97500D02*
X110000D01*
X157749Y65251D02*
X163589D01*
X183925Y74075D02*
X184500Y73500D01*
X166000Y97500D02*
X171000D01*
X159919Y98081D02*
Y104500D01*
Y98081D02*
X160500Y97500D01*
X153133Y101000D02*
X156633Y104500D01*
X159919D01*
X128965Y101000D02*
X153133D01*
X155449Y115449D02*
X156500Y116500D01*
X150500Y115449D02*
X155449D01*
X156500Y116500D02*
X159000D01*
X160000Y111029D02*
Y115500D01*
X159971Y111000D02*
X160000Y111029D01*
X159000Y116500D02*
X160000Y115500D01*
X127000Y101000D02*
X128965D01*
X133965Y106000D01*
X134752D01*
X62550Y69500D02*
X66500D01*
X63379Y71500D02*
X66500D01*
X61050Y71000D02*
X62550Y69500D01*
X61070Y73809D02*
X63379Y71500D01*
X55500Y68363D02*
Y73000D01*
X53500Y75000D02*
X55500Y73000D01*
X42000Y73667D02*
X43333Y75000D01*
X42000Y68363D02*
Y73667D01*
X30500Y75000D02*
X33167D01*
X28500Y73000D02*
X30500Y75000D01*
X28500Y68363D02*
Y73000D01*
X58000Y56473D02*
X59240Y57713D01*
Y58638D01*
X58000Y52000D02*
Y56473D01*
X50857Y52000D02*
Y56810D01*
X51760Y57713D01*
Y58638D01*
X43714Y52000D02*
Y55687D01*
X45740Y57713D01*
X36439Y52132D02*
Y55892D01*
X38260Y57713D01*
X29570Y55968D02*
X30634Y57032D01*
X31559D02*
X32240Y57713D01*
X29429Y52000D02*
X29570Y52141D01*
Y55968D01*
X30634Y57032D02*
X31559D01*
X32240Y57713D02*
Y58638D01*
X36439Y52132D02*
X36571Y52000D01*
X38260Y57713D02*
Y58638D01*
X45740Y57713D02*
Y58638D01*
X22286Y52000D02*
Y55239D01*
X24760Y57713D01*
Y58638D01*
X15143Y55000D02*
X17175Y57032D01*
X18059D01*
X18740Y57713D01*
Y58638D01*
X15143Y52000D02*
Y55000D01*
X8000D02*
X10032Y57032D01*
X10579D01*
X11260Y57713D02*
Y58638D01*
X8000Y52000D02*
Y55000D01*
X10579Y57032D02*
X11260Y57713D01*
X20079Y118110D02*
X19962Y119109D01*
X19618Y120054D01*
X19065Y120894D01*
X18334Y121584D01*
X17463Y122087D01*
X16500Y122375D01*
X15496Y122434D01*
X14506Y122259D01*
X13583Y121861D01*
X12776Y121260D01*
X12130Y120490D01*
X11678Y119591D01*
X11447Y118613D01*
Y117607D01*
X11678Y116629D01*
X12130Y115731D01*
X12776Y114960D01*
X13583Y114360D01*
X14506Y113962D01*
X15496Y113787D01*
X16500Y113845D01*
X17463Y114134D01*
X18334Y114637D01*
X19065Y115326D01*
X19618Y116167D01*
X19962Y117112D01*
X20079Y118110D01*
X189370D02*
X189253Y119109D01*
X188909Y120054D01*
X188357Y120894D01*
X187626Y121584D01*
X186755Y122087D01*
X185791Y122375D01*
X184788Y122434D01*
X183797Y122259D01*
X182874Y121861D01*
X182068Y121260D01*
X181421Y120490D01*
X180970Y119591D01*
X180738Y118613D01*
Y117607D01*
X180970Y116629D01*
X181421Y115731D01*
X182068Y114960D01*
X182874Y114360D01*
X183797Y113962D01*
X184788Y113787D01*
X185791Y113845D01*
X186755Y114134D01*
X187626Y114637D01*
X188357Y115326D01*
X188909Y116167D01*
X189253Y117112D01*
X189370Y118110D01*
X0Y0D02*
X200000D01*
X0Y140000D02*
X200000D01*
Y0D02*
Y140000D01*
X0Y0D02*
Y140000D01*
D18*
X134752Y115449D02*
D03*
X150500D02*
D03*
Y106000D02*
D03*
X134752D02*
D03*
D19*
X135000Y93811D02*
D03*
Y70189D02*
D03*
D20*
X66500Y67500D02*
D03*
Y79500D02*
D03*
Y77500D02*
D03*
Y75500D02*
D03*
Y73500D02*
D03*
Y71500D02*
D03*
Y69500D02*
D03*
Y65500D02*
D03*
X110500Y79500D02*
D03*
Y77500D02*
D03*
Y75500D02*
D03*
Y73500D02*
D03*
Y71500D02*
D03*
Y69500D02*
D03*
Y67500D02*
D03*
Y65500D02*
D03*
X66500Y63500D02*
D03*
Y61500D02*
D03*
Y59500D02*
D03*
Y57500D02*
D03*
Y55500D02*
D03*
Y53500D02*
D03*
Y51500D02*
D03*
Y49500D02*
D03*
X110500Y63500D02*
D03*
Y61500D02*
D03*
Y59500D02*
D03*
Y57500D02*
D03*
Y55500D02*
D03*
Y53500D02*
D03*
Y51500D02*
D03*
Y49500D02*
D03*
D21*
X73500Y86500D02*
D03*
X75500D02*
D03*
X77500D02*
D03*
X79500D02*
D03*
X81500D02*
D03*
X83500D02*
D03*
X85500D02*
D03*
X87500D02*
D03*
X89500D02*
D03*
X91500D02*
D03*
X93500D02*
D03*
X95500D02*
D03*
X97500D02*
D03*
X99500D02*
D03*
X101500D02*
D03*
X103500D02*
D03*
X73500Y42500D02*
D03*
X75500D02*
D03*
X77500D02*
D03*
X79500D02*
D03*
X81500D02*
D03*
X83500D02*
D03*
X85500D02*
D03*
X87500D02*
D03*
X89500D02*
D03*
X91500D02*
D03*
X93500D02*
D03*
X95500D02*
D03*
X97500D02*
D03*
X99500D02*
D03*
X101500D02*
D03*
X103500D02*
D03*
D22*
X184500Y53419D02*
D03*
Y60000D02*
D03*
Y73500D02*
D03*
Y66919D02*
D03*
D23*
X163589Y54877D02*
D03*
X175990D02*
D03*
X163589Y65251D02*
D03*
X175990D02*
D03*
D24*
X163841Y74075D02*
D03*
X169746D02*
D03*
X175652D02*
D03*
D25*
X154000Y79000D02*
D03*
Y84500D02*
D03*
X58000Y52000D02*
D03*
Y46500D02*
D03*
X43714Y52000D02*
D03*
Y46500D02*
D03*
X29429Y52000D02*
D03*
Y46500D02*
D03*
X15143Y52000D02*
D03*
Y46500D02*
D03*
X50857Y52000D02*
D03*
Y46500D02*
D03*
X8000D02*
D03*
Y52000D02*
D03*
X22286Y46500D02*
D03*
Y52000D02*
D03*
X33167Y80500D02*
D03*
Y75000D02*
D03*
X36571Y46500D02*
D03*
Y52000D02*
D03*
X43333Y80500D02*
D03*
Y75000D02*
D03*
X53500Y80500D02*
D03*
Y75000D02*
D03*
X23000Y80500D02*
D03*
Y75000D02*
D03*
D26*
X166000Y97500D02*
D03*
X160500D02*
D03*
X121500Y46000D02*
D03*
X127000D02*
D03*
X110000Y97500D02*
D03*
X115500D02*
D03*
D27*
X159919Y104500D02*
D03*
X166500D02*
D03*
X159971Y111000D02*
D03*
X166552D02*
D03*
X152581Y53500D02*
D03*
X146000D02*
D03*
X133500D02*
D03*
X140081D02*
D03*
X121000D02*
D03*
X127581D02*
D03*
X146000Y60500D02*
D03*
X152581D02*
D03*
X133500D02*
D03*
X140081D02*
D03*
X121000D02*
D03*
X127581D02*
D03*
X96709Y97500D02*
D03*
X103291D02*
D03*
D28*
X28823Y112024D02*
D03*
X31382Y112024D02*
D03*
X33941D02*
D03*
X36500Y112024D02*
D03*
X39059Y112024D02*
D03*
X41618D02*
D03*
X44177Y112024D02*
D03*
X44177Y89976D02*
D03*
X41618Y89976D02*
D03*
X39059D02*
D03*
X36500Y89976D02*
D03*
X33941Y89976D02*
D03*
X31382D02*
D03*
X28823Y89976D02*
D03*
D29*
X15000Y68363D02*
D03*
X18740Y58638D02*
D03*
X11260D02*
D03*
X42000Y68363D02*
D03*
X45740Y58638D02*
D03*
X38260D02*
D03*
X28500Y68363D02*
D03*
X32240Y58638D02*
D03*
X24760D02*
D03*
X55500Y68363D02*
D03*
X59240Y58638D02*
D03*
X51760D02*
D03*
D30*
X97500Y113294D02*
D03*
Y107500D02*
D03*
X106333Y113294D02*
D03*
Y107500D02*
D03*
X115167Y113294D02*
D03*
Y107500D02*
D03*
X124000Y113294D02*
D03*
Y107500D02*
D03*
D51*
X17500Y81000D02*
X22500D01*
X60000Y87000D02*
Y112500D01*
X32500Y121500D02*
X54000D01*
X60000Y115500D01*
X28823Y112024D02*
Y117823D01*
X32500Y121500D01*
X33167Y80500D02*
X43333D01*
X53500D01*
X23000D02*
X33167D01*
X53500D02*
X60000Y87000D01*
D52*
X4500Y75500D02*
X10000Y81000D01*
X4500Y31464D02*
Y75500D01*
X5965Y30000D02*
X8036D01*
X14536Y23500D01*
X4500Y31464D02*
X5965Y30000D01*
X14536Y23500D02*
X33689D01*
X61969D02*
X66922Y18547D01*
X133850D01*
X157749Y42447D01*
Y65251D01*
X33689Y23500D02*
X61969D01*
X69657Y31189D01*
X26000D02*
X33689Y23500D01*
X179789Y74075D02*
X183925D01*
X175652D02*
X179789D01*
D53*
X79500Y31189D02*
D03*
X69657D02*
D03*
X174843Y32500D02*
D03*
X165000D02*
D03*
X155157D02*
D03*
X26000Y31189D02*
D03*
X35842D02*
D03*
D54*
X59815D02*
D03*
X16158D02*
D03*
D55*
X184685Y32500D02*
D03*
D56*
X102000Y23000D02*
D03*
D57*
X111845D02*
D03*
X122005D02*
D03*
X132005D02*
D03*
D58*
X80000Y114000D02*
D03*
X60000D02*
D03*
D59*
X21000Y27000D02*
D03*
X17500Y81000D02*
D03*
X10000D02*
D03*
X27500Y77500D02*
D03*
X7000Y26000D02*
D03*
X61000Y63500D02*
D03*
X59500Y65500D02*
D03*
X74500Y38000D02*
D03*
X130500Y57000D02*
D03*
X124500D02*
D03*
X125000Y48000D02*
D03*
X86500Y97000D02*
D03*
X91000Y97500D02*
D03*
X48000Y88500D02*
D03*
Y91500D02*
D03*
X75586Y90414D02*
D03*
X8000Y33500D02*
D03*
X21500Y37500D02*
D03*
X53000Y28000D02*
D03*
Y33000D02*
D03*
X137000Y26500D02*
D03*
X127000D02*
D03*
X189500Y27000D02*
D03*
X190500Y31000D02*
D03*
X185500Y25500D02*
D03*
X180500Y26000D02*
D03*
X190500Y34500D02*
D03*
X188500Y38500D02*
D03*
X181500D02*
D03*
X189000Y63000D02*
D03*
Y60000D02*
D03*
Y66000D02*
D03*
X180500Y54500D02*
D03*
Y59500D02*
D03*
Y63500D02*
D03*
X128500Y110500D02*
D03*
Y114000D02*
D03*
X111000Y110500D02*
D03*
Y113500D02*
D03*
X102000Y110500D02*
D03*
Y113500D02*
D03*
X88000Y108500D02*
D03*
X89000Y120000D02*
D03*
X70500Y108500D02*
D03*
Y117000D02*
D03*
X163500Y48000D02*
D03*
X39000Y118000D02*
D03*
X46500Y116000D02*
D03*
X147500Y48000D02*
D03*
X70500Y97500D02*
D03*
X116500Y84500D02*
D03*
X110000Y82500D02*
D03*
X107000Y83500D02*
D03*
X11000Y38500D02*
D03*
X29500Y41500D02*
D03*
X36500D02*
D03*
X54500Y46500D02*
D03*
X65000Y36000D02*
D03*
X130000Y64500D02*
D03*
X127000Y97500D02*
D03*
X85000Y53000D02*
D03*
X73500Y64500D02*
D03*
Y71500D02*
D03*
X117993Y77493D02*
D03*
X121000Y78000D02*
D03*
X101500Y37000D02*
D03*
X123000Y30000D02*
D03*
X112000Y35000D02*
D03*
X121500Y36000D02*
D03*
X111018Y39018D02*
D03*
X107500Y39000D02*
D03*
X73500Y51500D02*
D03*
X38500Y78000D02*
D03*
X31500Y96191D02*
D03*
X23500Y85000D02*
D03*
X76500Y67500D02*
D03*
X85000Y71000D02*
D03*
X47500Y69500D02*
D03*
X41500Y105000D02*
D03*
X48000Y100000D02*
D03*
X100500Y77000D02*
D03*
X120000Y66000D02*
D03*
X52000Y85000D02*
D03*
X59000Y74000D02*
D03*
X104000Y72500D02*
D03*
X58732Y70732D02*
D03*
X56500Y97500D02*
D03*
X112000Y92500D02*
D03*
X51922Y97422D02*
D03*
X124000Y104000D02*
D03*
X115000D02*
D03*
X104000Y77000D02*
D03*
X110000Y89000D02*
D03*
X157749Y65251D02*
D03*
X179789Y74075D02*
D03*
X171000Y97500D02*
D03*
X127000Y101000D02*
D03*
X156500Y116500D02*
D03*
M02*
