G04*
G04 #@! TF.GenerationSoftware,Altium Limited,Altium Designer,21.8.1 (53)*
G04*
G04 Layer_Physical_Order=2*
G04 Layer_Color=16711680*
%FSLAX25Y25*%
%MOIN*%
G70*
G04*
G04 #@! TF.SameCoordinates,187DA05A-B4E4-4C7B-AEA6-211E795FDF11*
G04*
G04*
G04 #@! TF.FilePolarity,Positive*
G04*
G01*
G75*
%ADD11C,0.01000*%
%ADD51C,0.02000*%
%ADD52C,0.01500*%
%ADD53C,0.06000*%
%ADD54R,0.06000X0.06000*%
%ADD55R,0.06000X0.05906*%
%ADD56R,0.05905X0.05905*%
%ADD57C,0.05906*%
%ADD58O,0.12000X0.15000*%
%ADD59C,0.02000*%
G36*
X197500Y132000D02*
Y5500D01*
X194500Y2500D01*
X6000D01*
X2500Y6000D01*
Y132500D01*
X7500Y137500D01*
X192000D01*
X197500Y132000D01*
D02*
G37*
%LPC*%
G36*
X185466Y123460D02*
X184613D01*
X184514Y123441D01*
X184414D01*
X183577Y123275D01*
X183484Y123236D01*
X183386Y123216D01*
X182598Y122890D01*
X182514Y122834D01*
X182422Y122796D01*
X181712Y122322D01*
X181641Y122251D01*
X181558Y122195D01*
X180955Y121592D01*
X180899Y121508D01*
X180828Y121437D01*
X180354Y120728D01*
X180315Y120635D01*
X180260Y120552D01*
X179933Y119764D01*
X179913Y119665D01*
X179875Y119572D01*
X179709Y118736D01*
Y118635D01*
X179689Y118537D01*
Y117684D01*
X179709Y117585D01*
Y117485D01*
X179875Y116648D01*
X179913Y116555D01*
X179933Y116457D01*
X180260Y115669D01*
X180315Y115585D01*
X180354Y115492D01*
X180828Y114783D01*
X180899Y114712D01*
X180955Y114629D01*
X181558Y114025D01*
X181641Y113970D01*
X181712Y113899D01*
X182422Y113425D01*
X182514Y113386D01*
X182598Y113330D01*
X183386Y113004D01*
X183484Y112984D01*
X183577Y112946D01*
X184414Y112779D01*
X184514D01*
X184613Y112760D01*
X185466D01*
X185564Y112779D01*
X185665D01*
X186502Y112946D01*
X186594Y112984D01*
X186693Y113004D01*
X187481Y113330D01*
X187564Y113386D01*
X187657Y113425D01*
X188366Y113899D01*
X188437Y113970D01*
X188521Y114025D01*
X189124Y114629D01*
X189180Y114712D01*
X189251Y114783D01*
X189725Y115492D01*
X189763Y115585D01*
X189819Y115669D01*
X190146Y116457D01*
X190165Y116555D01*
X190204Y116648D01*
X190370Y117485D01*
Y117585D01*
X190390Y117684D01*
Y118537D01*
X190370Y118635D01*
Y118736D01*
X190204Y119572D01*
X190165Y119665D01*
X190146Y119764D01*
X189819Y120552D01*
X189763Y120635D01*
X189725Y120728D01*
X189251Y121437D01*
X189180Y121508D01*
X189124Y121592D01*
X188521Y122195D01*
X188437Y122251D01*
X188366Y122322D01*
X187657Y122796D01*
X187564Y122834D01*
X187481Y122890D01*
X186693Y123216D01*
X186594Y123236D01*
X186502Y123275D01*
X185665Y123441D01*
X185564D01*
X185466Y123460D01*
D02*
G37*
G36*
X16175D02*
X15322D01*
X15223Y123441D01*
X15123D01*
X14286Y123275D01*
X14193Y123236D01*
X14095Y123216D01*
X13307Y122890D01*
X13223Y122834D01*
X13130Y122796D01*
X12421Y122322D01*
X12350Y122251D01*
X12266Y122195D01*
X11663Y121592D01*
X11607Y121508D01*
X11536Y121437D01*
X11062Y120728D01*
X11024Y120635D01*
X10968Y120552D01*
X10642Y119764D01*
X10622Y119665D01*
X10584Y119572D01*
X10417Y118736D01*
Y118635D01*
X10398Y118537D01*
Y117684D01*
X10417Y117585D01*
Y117485D01*
X10584Y116648D01*
X10622Y116555D01*
X10642Y116457D01*
X10968Y115669D01*
X11024Y115585D01*
X11062Y115492D01*
X11536Y114783D01*
X11607Y114712D01*
X11663Y114629D01*
X12266Y114025D01*
X12350Y113970D01*
X12421Y113899D01*
X13130Y113425D01*
X13223Y113386D01*
X13307Y113330D01*
X14095Y113004D01*
X14193Y112984D01*
X14286Y112946D01*
X15123Y112779D01*
X15223D01*
X15322Y112760D01*
X16175D01*
X16273Y112779D01*
X16374D01*
X17210Y112946D01*
X17303Y112984D01*
X17401Y113004D01*
X18190Y113330D01*
X18273Y113386D01*
X18366Y113425D01*
X19075Y113899D01*
X19146Y113970D01*
X19230Y114025D01*
X19833Y114629D01*
X19889Y114712D01*
X19960Y114783D01*
X20434Y115492D01*
X20472Y115585D01*
X20528Y115669D01*
X20854Y116457D01*
X20874Y116555D01*
X20912Y116648D01*
X21079Y117485D01*
Y117585D01*
X21098Y117684D01*
Y118537D01*
X21079Y118635D01*
Y118736D01*
X20912Y119572D01*
X20874Y119665D01*
X20854Y119764D01*
X20528Y120552D01*
X20472Y120635D01*
X20434Y120728D01*
X19960Y121437D01*
X19889Y121508D01*
X19833Y121592D01*
X19230Y122195D01*
X19146Y122251D01*
X19075Y122322D01*
X18366Y122796D01*
X18273Y122834D01*
X18190Y122890D01*
X17401Y123216D01*
X17303Y123236D01*
X17210Y123275D01*
X16374Y123441D01*
X16273D01*
X16175Y123460D01*
D02*
G37*
G36*
X60000Y122534D02*
X58628Y122399D01*
X57308Y121999D01*
X56092Y121349D01*
X55026Y120474D01*
X54151Y119408D01*
X53501Y118192D01*
X53101Y116872D01*
X52966Y115500D01*
Y112500D01*
X53101Y111128D01*
X53501Y109808D01*
X54151Y108592D01*
X55026Y107526D01*
X56092Y106651D01*
X57308Y106001D01*
X58628Y105601D01*
X60000Y105466D01*
X61372Y105601D01*
X62692Y106001D01*
X63908Y106651D01*
X64974Y107526D01*
X65848Y108592D01*
X66499Y109808D01*
X66899Y111128D01*
X67034Y112500D01*
Y115500D01*
X66899Y116872D01*
X66499Y118192D01*
X65848Y119408D01*
X64974Y120474D01*
X63908Y121349D01*
X62692Y121999D01*
X61372Y122399D01*
X60000Y122534D01*
D02*
G37*
G36*
X117000Y120029D02*
X96000D01*
X95415Y119913D01*
X94919Y119581D01*
X91919Y116581D01*
X91587Y116085D01*
X91471Y115500D01*
Y106633D01*
X87866Y103029D01*
X56000D01*
X55415Y102913D01*
X54919Y102581D01*
X51759Y99422D01*
X51524D01*
X50789Y99117D01*
X50475Y98803D01*
X49887Y98923D01*
X49804Y99128D01*
X50000Y99602D01*
Y100398D01*
X49696Y101133D01*
X49133Y101696D01*
X48398Y102000D01*
X47602D01*
X47145Y101811D01*
X46862Y102235D01*
X47581Y102954D01*
X47913Y103450D01*
X48029Y104035D01*
Y114701D01*
X48195Y114867D01*
X48500Y115602D01*
Y116398D01*
X48195Y117133D01*
X47633Y117695D01*
X46898Y118000D01*
X46102D01*
X45367Y117695D01*
X44804Y117133D01*
X44500Y116398D01*
Y115602D01*
X44804Y114867D01*
X44971Y114701D01*
Y104669D01*
X37991Y97690D01*
X37529Y97881D01*
Y98866D01*
X41663Y103000D01*
X41898D01*
X42633Y103305D01*
X43196Y103867D01*
X43500Y104602D01*
Y105398D01*
X43196Y106133D01*
X42633Y106695D01*
X41898Y107000D01*
X41102D01*
X40945Y106935D01*
X40529Y107213D01*
Y116701D01*
X40696Y116867D01*
X41000Y117602D01*
Y118398D01*
X40696Y119133D01*
X40133Y119695D01*
X39398Y120000D01*
X38602D01*
X37867Y119695D01*
X37304Y119133D01*
X37000Y118398D01*
Y117602D01*
X37304Y116867D01*
X37471Y116701D01*
Y105962D01*
X32919Y101410D01*
X32587Y100914D01*
X32471Y100328D01*
Y98404D01*
X32055Y98126D01*
X31898Y98191D01*
X31102D01*
X30367Y97887D01*
X30010Y97529D01*
X29000D01*
X28415Y97413D01*
X27919Y97081D01*
X26419Y95581D01*
X26087Y95085D01*
X25971Y94500D01*
Y85469D01*
X25500Y85398D01*
X25196Y86133D01*
X24633Y86695D01*
X23898Y87000D01*
X23102D01*
X22367Y86695D01*
X21804Y86133D01*
X21500Y85398D01*
Y84602D01*
X21804Y83867D01*
X21971Y83701D01*
Y43531D01*
X22087Y42946D01*
X22419Y42450D01*
X32123Y32746D01*
X32115Y32733D01*
X31842Y31715D01*
Y30662D01*
X32115Y29645D01*
X32642Y28733D01*
X33386Y27988D01*
X34299Y27461D01*
X35316Y27189D01*
X36369D01*
X37386Y27461D01*
X38299Y27988D01*
X39043Y28733D01*
X39570Y29645D01*
X39843Y30662D01*
Y31715D01*
X39570Y32733D01*
X39043Y33645D01*
X38717Y33971D01*
X38925Y34471D01*
X63701D01*
X63867Y34304D01*
X64602Y34000D01*
X65398D01*
X66133Y34304D01*
X66695Y34867D01*
X67000Y35602D01*
Y36398D01*
X66695Y37133D01*
X66133Y37696D01*
X65398Y38000D01*
X65163D01*
X56500Y46663D01*
Y46898D01*
X56195Y47633D01*
X55633Y48195D01*
X54898Y48500D01*
X54102D01*
X53367Y48195D01*
X52804Y47633D01*
X52500Y46898D01*
Y46102D01*
X52804Y45367D01*
X53367Y44804D01*
X54102Y44500D01*
X54337D01*
X60846Y37991D01*
X60654Y37529D01*
X42634D01*
X38500Y41663D01*
Y41898D01*
X38195Y42633D01*
X37633Y43196D01*
X36898Y43500D01*
X36102D01*
X35367Y43196D01*
X34804Y42633D01*
X34500Y41898D01*
Y41102D01*
X34804Y40367D01*
X35367Y39805D01*
X36102Y39500D01*
X36337D01*
X37846Y37991D01*
X37654Y37529D01*
X35634D01*
X31500Y41663D01*
Y41898D01*
X31196Y42633D01*
X30633Y43196D01*
X29898Y43500D01*
X29102D01*
X28367Y43196D01*
X27804Y42633D01*
X27647Y42254D01*
X27058Y42136D01*
X25029Y44165D01*
Y77031D01*
X25500Y77102D01*
X25804Y76367D01*
X26367Y75805D01*
X27102Y75500D01*
X27898D01*
X28633Y75805D01*
X29195Y76367D01*
X29500Y77102D01*
Y77898D01*
X29195Y78633D01*
X29029Y78799D01*
Y93866D01*
X29634Y94471D01*
X30428D01*
X31102Y94191D01*
X31898D01*
X32055Y94256D01*
X32471Y93979D01*
Y74000D01*
X32587Y73415D01*
X32919Y72919D01*
X70148Y35689D01*
X69941Y35189D01*
X69131D01*
X68114Y34916D01*
X67201Y34389D01*
X66457Y33645D01*
X65930Y32733D01*
X65658Y31715D01*
Y30662D01*
X65930Y29645D01*
X66457Y28733D01*
X67201Y27988D01*
X68114Y27461D01*
X69131Y27189D01*
X70184D01*
X71201Y27461D01*
X72114Y27988D01*
X72858Y28733D01*
X73385Y29645D01*
X73658Y30662D01*
Y31473D01*
X74158Y31680D01*
X74892Y30945D01*
X75388Y30613D01*
X75520Y30587D01*
X75773Y29645D01*
X76299Y28733D01*
X77044Y27988D01*
X77956Y27461D01*
X78973Y27189D01*
X80027D01*
X81044Y27461D01*
X81956Y27988D01*
X82009Y28041D01*
X82471Y27849D01*
Y27134D01*
X80366Y25029D01*
X16358D01*
X12529Y28858D01*
Y37201D01*
X12696Y37367D01*
X13000Y38102D01*
Y38898D01*
X12696Y39633D01*
X12133Y40196D01*
X11398Y40500D01*
X10602D01*
X9867Y40196D01*
X9305Y39633D01*
X9000Y38898D01*
Y38102D01*
X9305Y37367D01*
X9471Y37201D01*
Y28225D01*
X9587Y27640D01*
X9919Y27143D01*
X14643Y22419D01*
X15140Y22087D01*
X15725Y21971D01*
X81000D01*
X81585Y22087D01*
X82081Y22419D01*
X85081Y25419D01*
X85413Y25915D01*
X85529Y26500D01*
Y33615D01*
X85413Y34200D01*
X85081Y34696D01*
X75029Y44748D01*
Y50201D01*
X75195Y50367D01*
X75500Y51102D01*
Y51898D01*
X75195Y52633D01*
X74633Y53196D01*
X73898Y53500D01*
X73102D01*
X72367Y53196D01*
X71804Y52633D01*
X71500Y51898D01*
Y51102D01*
X71804Y50367D01*
X71971Y50201D01*
Y44115D01*
X72087Y43529D01*
X72419Y43033D01*
X79763Y35689D01*
X79556Y35189D01*
X78973D01*
X77956Y34916D01*
X77044Y34389D01*
X76409Y33754D01*
X42654Y67509D01*
X42846Y67971D01*
X46201D01*
X46367Y67804D01*
X47102Y67500D01*
X47898D01*
X48633Y67804D01*
X49196Y68367D01*
X49500Y69102D01*
Y69898D01*
X49196Y70633D01*
X48633Y71196D01*
X47898Y71500D01*
X47102D01*
X46367Y71196D01*
X46201Y71029D01*
X41962D01*
X37651Y75340D01*
X37675Y75682D01*
X38102Y76000D01*
X38898D01*
X39633Y76305D01*
X40196Y76867D01*
X40500Y77602D01*
Y78398D01*
X40196Y79133D01*
X40029Y79299D01*
Y95402D01*
X45765Y101138D01*
X46189Y100855D01*
X46000Y100398D01*
Y99602D01*
X46305Y98867D01*
X46662Y98510D01*
Y97617D01*
X46778Y97032D01*
X47110Y96535D01*
X51227Y92419D01*
X51723Y92087D01*
X52308Y91971D01*
X100154D01*
X100346Y91509D01*
X99419Y90581D01*
X99087Y90085D01*
X98971Y89500D01*
Y78299D01*
X98804Y78133D01*
X98500Y77398D01*
Y76602D01*
X98737Y76029D01*
X98489Y75529D01*
X79633D01*
X74677Y80486D01*
X74181Y80817D01*
X73596Y80934D01*
X58229D01*
X54000Y85163D01*
Y85398D01*
X53695Y86133D01*
X53133Y86695D01*
X52398Y87000D01*
X51602D01*
X50867Y86695D01*
X50305Y86133D01*
X50000Y85398D01*
Y84602D01*
X50305Y83867D01*
X50867Y83305D01*
X51602Y83000D01*
X51837D01*
X56514Y78323D01*
X57010Y77991D01*
X57596Y77875D01*
X72962D01*
X77919Y72919D01*
X78415Y72587D01*
X78693Y72532D01*
X78786Y72345D01*
X78831Y71994D01*
X76337Y69500D01*
X76102D01*
X75529Y69263D01*
X75029Y69511D01*
Y70201D01*
X75195Y70367D01*
X75500Y71102D01*
Y71898D01*
X75195Y72633D01*
X74633Y73195D01*
X73898Y73500D01*
X73102D01*
X72367Y73195D01*
X71804Y72633D01*
X71500Y71898D01*
Y71102D01*
X71804Y70367D01*
X71971Y70201D01*
Y65799D01*
X71804Y65633D01*
X71750Y65501D01*
X71259Y65403D01*
X61599Y75064D01*
X61103Y75395D01*
X60518Y75512D01*
X60317D01*
X60133Y75696D01*
X59398Y76000D01*
X58602D01*
X57867Y75696D01*
X57305Y75133D01*
X57000Y74398D01*
Y73602D01*
X57305Y72867D01*
X57623Y72548D01*
X57599Y72428D01*
X57037Y71865D01*
X56732Y71130D01*
Y70334D01*
X57037Y69599D01*
X57599Y69037D01*
X58334Y68732D01*
X59130D01*
X59865Y69037D01*
X60415Y68922D01*
X87419Y41919D01*
X87915Y41587D01*
X88500Y41471D01*
X107031D01*
X107102Y41000D01*
X106367Y40696D01*
X105805Y40133D01*
X105500Y39398D01*
Y38602D01*
X105805Y37867D01*
X105971Y37701D01*
Y35500D01*
X105996Y35374D01*
X105535Y35128D01*
X103500Y37163D01*
Y37398D01*
X103196Y38133D01*
X102633Y38695D01*
X101898Y39000D01*
X101102D01*
X100367Y38695D01*
X99805Y38133D01*
X99500Y37398D01*
Y36602D01*
X99805Y35867D01*
X100367Y35304D01*
X101102Y35000D01*
X101337D01*
X107419Y28919D01*
X107915Y28587D01*
X108500Y28471D01*
X121701D01*
X121867Y28304D01*
X122602Y28000D01*
X123398D01*
X124133Y28304D01*
X124696Y28867D01*
X125000Y29602D01*
Y30398D01*
X124935Y30555D01*
X125213Y30971D01*
X151426D01*
X151430Y30956D01*
X151957Y30044D01*
X152701Y29299D01*
X153613Y28773D01*
X154631Y28500D01*
X155684D01*
X156701Y28773D01*
X157614Y29299D01*
X158358Y30044D01*
X158885Y30956D01*
X159158Y31973D01*
Y33027D01*
X158885Y34044D01*
X158358Y34956D01*
X157614Y35701D01*
X156701Y36227D01*
X155684Y36500D01*
X154631D01*
X153613Y36227D01*
X152701Y35701D01*
X151957Y34956D01*
X151430Y34044D01*
X151426Y34029D01*
X123065D01*
X122858Y34529D01*
X123196Y34867D01*
X123500Y35602D01*
Y36398D01*
X123255Y36988D01*
X123493Y37488D01*
X157849D01*
X161280Y34057D01*
X161273Y34044D01*
X161000Y33027D01*
Y31973D01*
X161273Y30956D01*
X161799Y30044D01*
X162544Y29299D01*
X163456Y28773D01*
X164473Y28500D01*
X165527D01*
X166544Y28773D01*
X167456Y29299D01*
X168201Y30044D01*
X168727Y30956D01*
X169000Y31973D01*
Y33027D01*
X168727Y34044D01*
X168201Y34956D01*
X167456Y35701D01*
X166544Y36227D01*
X165527Y36500D01*
X164473D01*
X163456Y36227D01*
X163443Y36220D01*
X159564Y40099D01*
X159067Y40431D01*
X158482Y40547D01*
X112317D01*
X112151Y40713D01*
X111529Y40971D01*
X111629Y41471D01*
X129000D01*
X129585Y41587D01*
X130081Y41919D01*
X172081Y83919D01*
X172413Y84415D01*
X172529Y85000D01*
Y96201D01*
X172696Y96367D01*
X173000Y97102D01*
Y97898D01*
X172696Y98633D01*
X172529Y98799D01*
Y109000D01*
X172413Y109585D01*
X172081Y110081D01*
X164581Y117581D01*
X164085Y117913D01*
X163500Y118029D01*
X157799D01*
X157633Y118195D01*
X156898Y118500D01*
X156102D01*
X155367Y118195D01*
X154805Y117633D01*
X154500Y116898D01*
Y116102D01*
X154805Y115367D01*
X155367Y114804D01*
X156102Y114500D01*
X156898D01*
X157633Y114804D01*
X157799Y114971D01*
X162866D01*
X169471Y108367D01*
Y98799D01*
X169305Y98633D01*
X169000Y97898D01*
Y97102D01*
X169269Y96452D01*
X168826Y96215D01*
X168581Y96581D01*
X163081Y102081D01*
X162585Y102413D01*
X162000Y102529D01*
X128299D01*
X128133Y102696D01*
X127398Y103000D01*
X126602D01*
X126227Y102845D01*
X125845Y103227D01*
X126000Y103602D01*
Y104398D01*
X125696Y105133D01*
X125133Y105695D01*
X124398Y106000D01*
X123602D01*
X122867Y105695D01*
X122304Y105133D01*
X122000Y104398D01*
Y104163D01*
X121159Y103322D01*
X120697Y103514D01*
Y116332D01*
X120581Y116917D01*
X120249Y117413D01*
X118081Y119581D01*
X117585Y119913D01*
X117000Y120029D01*
D02*
G37*
G36*
X17500Y83039D02*
X10000D01*
X9803Y83000D01*
X9602D01*
X9417Y82923D01*
X9220Y82884D01*
X9053Y82772D01*
X8867Y82696D01*
X8725Y82553D01*
X8558Y82442D01*
X8446Y82275D01*
X8304Y82133D01*
X8228Y81947D01*
X8116Y81780D01*
X8077Y81583D01*
X8000Y81398D01*
Y81197D01*
X7961Y81000D01*
X8000Y80803D01*
Y80602D01*
X8077Y80417D01*
X8116Y80220D01*
X8228Y80053D01*
X8304Y79867D01*
X8446Y79725D01*
X8558Y79558D01*
X8725Y79447D01*
X8867Y79304D01*
X9053Y79228D01*
X9220Y79116D01*
X9417Y79077D01*
X9602Y79000D01*
X9803D01*
X10000Y78961D01*
X17500D01*
X17697Y79000D01*
X17898D01*
X18083Y79077D01*
X18280Y79116D01*
X18447Y79228D01*
X18633Y79304D01*
X18775Y79447D01*
X18942Y79558D01*
X19053Y79725D01*
X19196Y79867D01*
X19272Y80053D01*
X19384Y80220D01*
X19423Y80417D01*
X19500Y80602D01*
Y80803D01*
X19539Y81000D01*
X19500Y81197D01*
Y81398D01*
X19423Y81583D01*
X19384Y81780D01*
X19272Y81947D01*
X19196Y82133D01*
X19053Y82275D01*
X18942Y82442D01*
X18775Y82553D01*
X18633Y82696D01*
X18447Y82772D01*
X18280Y82884D01*
X18083Y82923D01*
X17898Y83000D01*
X17697D01*
X17500Y83039D01*
D02*
G37*
G36*
X180187Y76075D02*
X179391D01*
X178870Y75859D01*
X173075D01*
X172392Y75723D01*
X171813Y75336D01*
X171813Y75336D01*
X163512Y67035D01*
X158668D01*
X158147Y67251D01*
X157351D01*
X156616Y66946D01*
X156054Y66384D01*
X155749Y65649D01*
Y64853D01*
X156054Y64118D01*
X156616Y63555D01*
X157351Y63251D01*
X158147D01*
X158668Y63466D01*
X164251D01*
X164934Y63602D01*
X165512Y63989D01*
X173814Y72290D01*
X178870D01*
X179391Y72075D01*
X180187D01*
X180922Y72379D01*
X181484Y72942D01*
X181789Y73677D01*
Y74472D01*
X181484Y75208D01*
X180922Y75770D01*
X180187Y76075D01*
D02*
G37*
G36*
X163898Y50000D02*
X163102D01*
X162367Y49696D01*
X162201Y49529D01*
X148799D01*
X148633Y49696D01*
X147898Y50000D01*
X147102D01*
X146367Y49696D01*
X145805Y49133D01*
X145500Y48398D01*
Y47602D01*
X145805Y46867D01*
X146367Y46305D01*
X147102Y46000D01*
X147898D01*
X148633Y46305D01*
X148799Y46471D01*
X162201D01*
X162367Y46305D01*
X163102Y46000D01*
X163898D01*
X164633Y46305D01*
X165196Y46867D01*
X165500Y47602D01*
Y48398D01*
X165196Y49133D01*
X164633Y49696D01*
X163898Y50000D01*
D02*
G37*
G36*
X175369Y36500D02*
X174316D01*
X173299Y36227D01*
X172387Y35701D01*
X171642Y34956D01*
X171115Y34044D01*
X170843Y33027D01*
Y31973D01*
X171115Y30956D01*
X171642Y30044D01*
X172387Y29299D01*
X173299Y28773D01*
X174316Y28500D01*
X175369D01*
X176386Y28773D01*
X177299Y29299D01*
X178043Y30044D01*
X178570Y30956D01*
X178842Y31973D01*
Y33027D01*
X178570Y34044D01*
X178043Y34956D01*
X177299Y35701D01*
X176386Y36227D01*
X175369Y36500D01*
D02*
G37*
G36*
X26527Y35189D02*
X25473D01*
X24456Y34916D01*
X23544Y34389D01*
X22799Y33645D01*
X22273Y32733D01*
X22000Y31715D01*
Y30662D01*
X22273Y29645D01*
X22799Y28733D01*
X23544Y27988D01*
X24456Y27461D01*
X25473Y27189D01*
X26527D01*
X27544Y27461D01*
X28456Y27988D01*
X29201Y28733D01*
X29727Y29645D01*
X30000Y30662D01*
Y31715D01*
X29727Y32733D01*
X29201Y33645D01*
X28456Y34389D01*
X27544Y34916D01*
X26527Y35189D01*
D02*
G37*
G36*
X105953Y26952D02*
X98048D01*
Y19048D01*
X105953D01*
Y26952D01*
D02*
G37*
G36*
X122525Y26953D02*
X121485D01*
X120479Y26684D01*
X119578Y26163D01*
X118842Y25427D01*
X118321Y24526D01*
X118052Y23520D01*
Y22480D01*
X118321Y21474D01*
X118842Y20573D01*
X119578Y19837D01*
X120479Y19316D01*
X121485Y19047D01*
X122525D01*
X123531Y19316D01*
X124432Y19837D01*
X125168Y20573D01*
X125689Y21474D01*
X125958Y22480D01*
Y23520D01*
X125689Y24526D01*
X125168Y25427D01*
X124432Y26163D01*
X123531Y26684D01*
X122525Y26953D01*
D02*
G37*
G36*
X112365D02*
X111325D01*
X110319Y26684D01*
X109418Y26163D01*
X108682Y25427D01*
X108161Y24526D01*
X107892Y23520D01*
Y22480D01*
X108161Y21474D01*
X108682Y20573D01*
X109418Y19837D01*
X110319Y19316D01*
X111325Y19047D01*
X112365D01*
X113371Y19316D01*
X114272Y19837D01*
X115008Y20573D01*
X115529Y21474D01*
X115798Y22480D01*
Y23520D01*
X115529Y24526D01*
X115008Y25427D01*
X114272Y26163D01*
X113371Y26684D01*
X112365Y26953D01*
D02*
G37*
%LPD*%
G36*
X117639Y115699D02*
Y100697D01*
X114514D01*
X114322Y101159D01*
X115163Y102000D01*
X115398D01*
X116133Y102304D01*
X116695Y102867D01*
X117000Y103602D01*
Y104398D01*
X116695Y105133D01*
X116133Y105695D01*
X115398Y106000D01*
X114602D01*
X113867Y105695D01*
X113304Y105133D01*
X113000Y104398D01*
Y104163D01*
X103867Y95029D01*
X70969D01*
X70898Y95500D01*
X71633Y95805D01*
X72196Y96367D01*
X72500Y97102D01*
Y97898D01*
X72196Y98633D01*
X71633Y99195D01*
X70898Y99500D01*
X70969Y99971D01*
X88500D01*
X89085Y100087D01*
X89581Y100419D01*
X94081Y104919D01*
X94413Y105415D01*
X94529Y106000D01*
Y114866D01*
X96633Y116971D01*
X116367D01*
X117639Y115699D01*
D02*
G37*
G36*
X125155Y101772D02*
X125000Y101398D01*
Y100602D01*
X125304Y99867D01*
X125595Y99577D01*
X125828Y99250D01*
X125595Y98923D01*
X125304Y98633D01*
X125000Y97898D01*
Y97102D01*
X125304Y96367D01*
X125471Y96201D01*
Y67500D01*
X125587Y66915D01*
X125919Y66419D01*
X128000Y64337D01*
Y64102D01*
X128305Y63367D01*
X128867Y62805D01*
X129602Y62500D01*
X130398D01*
X131133Y62805D01*
X131695Y63367D01*
X132000Y64102D01*
Y64898D01*
X131695Y65633D01*
X131133Y66195D01*
X130398Y66500D01*
X130163D01*
X128529Y68133D01*
Y96201D01*
X128695Y96367D01*
X129000Y97102D01*
Y97898D01*
X128695Y98633D01*
X128405Y98923D01*
X128363Y98983D01*
X128565Y99471D01*
X161366D01*
X165971Y94867D01*
Y86133D01*
X126866Y47029D01*
X89634D01*
X85903Y50759D01*
X86001Y51250D01*
X86133Y51305D01*
X86695Y51867D01*
X87000Y52602D01*
Y53398D01*
X86695Y54133D01*
X86133Y54695D01*
X85398Y55000D01*
X85163D01*
X75500Y64663D01*
Y64898D01*
X75345Y65272D01*
X75727Y65655D01*
X76102Y65500D01*
X76898D01*
X77633Y65804D01*
X78196Y66367D01*
X78500Y67102D01*
Y67337D01*
X80633Y69471D01*
X83701D01*
X83867Y69305D01*
X84602Y69000D01*
X85398D01*
X86133Y69305D01*
X86695Y69867D01*
X87000Y70602D01*
Y71398D01*
X86763Y71971D01*
X87011Y72471D01*
X101866D01*
X102000Y72337D01*
Y72102D01*
X102304Y71367D01*
X102867Y70805D01*
X103602Y70500D01*
X104398D01*
X105133Y70805D01*
X105695Y71367D01*
X106000Y72102D01*
Y72898D01*
X105695Y73633D01*
X105133Y74195D01*
X104613Y74411D01*
X104541Y74538D01*
X104767Y75153D01*
X105133Y75305D01*
X105695Y75867D01*
X106000Y76602D01*
Y77398D01*
X105695Y78133D01*
X105529Y78299D01*
Y81489D01*
X106029Y81737D01*
X106602Y81500D01*
X107398D01*
X108125Y81801D01*
X108305Y81367D01*
X108867Y80805D01*
X109602Y80500D01*
X110398D01*
X111133Y80805D01*
X111696Y81367D01*
X112000Y82102D01*
Y82337D01*
X112634Y82971D01*
X115201D01*
X115367Y82805D01*
X116102Y82500D01*
X116898D01*
X117633Y82805D01*
X118195Y83367D01*
X118500Y84102D01*
Y84651D01*
X119000Y84858D01*
X119471Y84387D01*
Y79545D01*
X119373Y79445D01*
X119001Y79246D01*
X118836Y79308D01*
X118391Y79493D01*
X117595D01*
X116860Y79188D01*
X116297Y78626D01*
X115993Y77890D01*
Y77095D01*
X116297Y76360D01*
X116860Y75797D01*
X117595Y75493D01*
X117809D01*
X118471Y74831D01*
Y67299D01*
X118305Y67133D01*
X118000Y66398D01*
Y65602D01*
X118305Y64867D01*
X118867Y64305D01*
X119602Y64000D01*
X120398D01*
X121133Y64305D01*
X121695Y64867D01*
X122000Y65602D01*
Y66398D01*
X121695Y67133D01*
X121529Y67299D01*
Y75464D01*
X121421Y76010D01*
X122133Y76305D01*
X122696Y76867D01*
X123000Y77602D01*
Y78398D01*
X122696Y79133D01*
X122529Y79299D01*
Y85021D01*
X122413Y85606D01*
X122081Y86102D01*
X120102Y88081D01*
X120040Y88123D01*
X118081Y90081D01*
X117585Y90413D01*
X117000Y90529D01*
X113565D01*
X113358Y91029D01*
X113696Y91367D01*
X114000Y92102D01*
Y92898D01*
X113696Y93633D01*
X113133Y94195D01*
X112398Y94500D01*
X111602D01*
X110867Y94195D01*
X110559Y94568D01*
X113630Y97638D01*
X119168D01*
X119753Y97755D01*
X120249Y98087D01*
X124163Y102000D01*
X124398D01*
X124773Y102155D01*
X125155Y101772D01*
D02*
G37*
D11*
X27500Y77500D02*
Y94500D01*
X29000Y96000D01*
X31309D01*
X31500Y96191D01*
X147500Y48000D02*
X163500D01*
X39000Y105328D02*
Y118000D01*
X46500Y104035D02*
Y116000D01*
X56500Y97500D02*
X70500D01*
X112000Y84500D02*
X116500D01*
X110000Y82500D02*
X112000Y84500D01*
X119021Y87000D02*
X121000Y85021D01*
Y78000D02*
Y85021D01*
X110000Y89000D02*
X117000D01*
X119000Y87000D01*
X119021D01*
X107000Y83500D02*
Y89535D01*
X109773Y92309D01*
X104000Y77000D02*
Y90172D01*
X112996Y99168D01*
X11000Y28225D02*
Y38500D01*
X29500Y41500D02*
X35000Y36000D01*
X42000D01*
X65000D01*
X36500Y41500D02*
X42000Y36000D01*
X54500Y46500D02*
X65000Y36000D01*
X127000Y67500D02*
X130000Y64500D01*
X127000Y67500D02*
Y97500D01*
X73500Y64500D02*
X85000Y53000D01*
X60518Y73982D02*
X89000Y45500D01*
X59000Y74000D02*
X59018Y73982D01*
X58732Y70732D02*
X60768D01*
X88500Y43000D01*
X59018Y73982D02*
X60518D01*
X73500Y64500D02*
Y71500D01*
X117993Y77472D02*
Y77493D01*
X101500Y37000D02*
X108500Y30000D01*
X123000D01*
X110500Y32500D02*
X155157D01*
X107500Y35500D02*
X110500Y32500D01*
X107500Y35500D02*
Y39000D01*
X120229Y35000D02*
X121229Y36000D01*
X121500D01*
X112000Y35000D02*
X120229D01*
X111018Y39018D02*
X158482D01*
X88500Y43000D02*
X129000D01*
X89000Y45500D02*
X127500D01*
X167500Y85500D01*
X129000Y43000D02*
X171000Y85000D01*
X158482Y39018D02*
X165000Y32500D01*
X11000Y28225D02*
X15725Y23500D01*
X81000D01*
X84000Y26500D01*
X73500Y44115D02*
Y51500D01*
Y44115D02*
X84000Y33615D01*
Y26500D02*
Y33615D01*
X78662Y32026D02*
X79500Y31189D01*
X75974Y32026D02*
X78662D01*
X34000Y74000D02*
X75974Y32026D01*
X36000Y74828D02*
Y99500D01*
X41328Y69500D02*
X47500D01*
X36000Y74828D02*
X41328Y69500D01*
X34000Y74000D02*
Y100328D01*
X38500Y78000D02*
Y96035D01*
X34000Y100328D02*
X39000Y105328D01*
X36000Y99500D02*
X41500Y105000D01*
X23500Y43531D02*
X35842Y31189D01*
X23500Y43531D02*
Y85000D01*
X76500Y67500D02*
X80000Y71000D01*
X85000D01*
X102500Y74000D02*
X104000Y72500D01*
X79000Y74000D02*
X102500D01*
X73596Y79404D02*
X79000Y74000D01*
X57596Y79404D02*
X73596D01*
X38500Y96035D02*
X46500Y104035D01*
X48191Y97617D02*
X52308Y93500D01*
X48191Y97617D02*
Y99809D01*
X48000Y100000D02*
X48191Y99809D01*
X52000Y85000D02*
X57596Y79404D01*
X100500Y77000D02*
Y89500D01*
X167500Y85500D02*
Y95500D01*
X171000Y85000D02*
Y97500D01*
X162000Y101000D02*
X167500Y95500D01*
X171000Y97500D02*
Y109000D01*
X127000Y101000D02*
X162000D01*
X120000Y66000D02*
Y75464D01*
X117993Y77472D02*
X120000Y75464D01*
X104500Y93500D02*
X115000Y104000D01*
X52308Y93500D02*
X104500D01*
X100500Y89500D02*
X104500Y93500D01*
X109773Y92309D02*
X111809D01*
X112000Y92500D01*
X51922Y97422D02*
X56000Y101500D01*
X88500D01*
X93000Y106000D02*
Y115500D01*
X88500Y101500D02*
X93000Y106000D01*
X96000Y118500D02*
X117000D01*
X93000Y115500D02*
X96000Y118500D01*
X117000D02*
X119168Y116332D01*
Y99168D02*
Y116332D01*
Y99168D02*
X124000Y104000D01*
X112996Y99168D02*
X119168D01*
X156500Y116500D02*
X163500D01*
X171000Y109000D01*
X20079Y118110D02*
X19962Y119109D01*
X19618Y120054D01*
X19065Y120894D01*
X18334Y121584D01*
X17463Y122087D01*
X16500Y122375D01*
X15496Y122434D01*
X14506Y122259D01*
X13583Y121861D01*
X12776Y121260D01*
X12130Y120490D01*
X11678Y119591D01*
X11447Y118613D01*
Y117607D01*
X11678Y116629D01*
X12130Y115731D01*
X12776Y114960D01*
X13583Y114360D01*
X14506Y113962D01*
X15496Y113787D01*
X16500Y113845D01*
X17463Y114134D01*
X18334Y114637D01*
X19065Y115326D01*
X19618Y116167D01*
X19962Y117112D01*
X20079Y118110D01*
X189370D02*
X189253Y119109D01*
X188909Y120054D01*
X188357Y120894D01*
X187626Y121584D01*
X186755Y122087D01*
X185791Y122375D01*
X184788Y122434D01*
X183797Y122259D01*
X182874Y121861D01*
X182068Y121260D01*
X181421Y120490D01*
X180970Y119591D01*
X180738Y118613D01*
Y117607D01*
X180970Y116629D01*
X181421Y115731D01*
X182068Y114960D01*
X182874Y114360D01*
X183797Y113962D01*
X184788Y113787D01*
X185791Y113845D01*
X186755Y114134D01*
X187626Y114637D01*
X188357Y115326D01*
X188909Y116167D01*
X189253Y117112D01*
X189370Y118110D01*
X0Y0D02*
X200000D01*
X0Y140000D02*
X200000D01*
Y0D02*
Y140000D01*
X0Y0D02*
Y140000D01*
D51*
X10000Y81000D02*
X17500D01*
D52*
X157749Y65251D02*
X164251D01*
X173075Y74075D01*
X179789D01*
D53*
X79500Y31189D02*
D03*
X69657D02*
D03*
X174843Y32500D02*
D03*
X165000D02*
D03*
X155157D02*
D03*
X26000Y31189D02*
D03*
X35842D02*
D03*
D54*
X59815D02*
D03*
X16158D02*
D03*
D55*
X184685Y32500D02*
D03*
D56*
X102000Y23000D02*
D03*
D57*
X111845D02*
D03*
X122005D02*
D03*
X132005D02*
D03*
D58*
X80000Y114000D02*
D03*
X60000D02*
D03*
D59*
X21000Y27000D02*
D03*
X17500Y81000D02*
D03*
X10000D02*
D03*
X27500Y77500D02*
D03*
X7000Y26000D02*
D03*
X61000Y63500D02*
D03*
X59500Y65500D02*
D03*
X74500Y38000D02*
D03*
X130500Y57000D02*
D03*
X124500D02*
D03*
X125000Y48000D02*
D03*
X86500Y97000D02*
D03*
X91000Y97500D02*
D03*
X48000Y88500D02*
D03*
Y91500D02*
D03*
X75586Y90414D02*
D03*
X8000Y33500D02*
D03*
X21500Y37500D02*
D03*
X53000Y28000D02*
D03*
Y33000D02*
D03*
X137000Y26500D02*
D03*
X127000D02*
D03*
X189500Y27000D02*
D03*
X190500Y31000D02*
D03*
X185500Y25500D02*
D03*
X180500Y26000D02*
D03*
X190500Y34500D02*
D03*
X188500Y38500D02*
D03*
X181500D02*
D03*
X189000Y63000D02*
D03*
Y60000D02*
D03*
Y66000D02*
D03*
X180500Y54500D02*
D03*
Y59500D02*
D03*
Y63500D02*
D03*
X128500Y110500D02*
D03*
Y114000D02*
D03*
X111000Y110500D02*
D03*
Y113500D02*
D03*
X102000Y110500D02*
D03*
Y113500D02*
D03*
X88000Y108500D02*
D03*
X89000Y120000D02*
D03*
X70500Y108500D02*
D03*
Y117000D02*
D03*
X163500Y48000D02*
D03*
X39000Y118000D02*
D03*
X46500Y116000D02*
D03*
X147500Y48000D02*
D03*
X70500Y97500D02*
D03*
X116500Y84500D02*
D03*
X110000Y82500D02*
D03*
X107000Y83500D02*
D03*
X11000Y38500D02*
D03*
X29500Y41500D02*
D03*
X36500D02*
D03*
X54500Y46500D02*
D03*
X65000Y36000D02*
D03*
X130000Y64500D02*
D03*
X127000Y97500D02*
D03*
X85000Y53000D02*
D03*
X73500Y64500D02*
D03*
Y71500D02*
D03*
X117993Y77493D02*
D03*
X121000Y78000D02*
D03*
X101500Y37000D02*
D03*
X123000Y30000D02*
D03*
X112000Y35000D02*
D03*
X121500Y36000D02*
D03*
X111018Y39018D02*
D03*
X107500Y39000D02*
D03*
X73500Y51500D02*
D03*
X38500Y78000D02*
D03*
X31500Y96191D02*
D03*
X23500Y85000D02*
D03*
X76500Y67500D02*
D03*
X85000Y71000D02*
D03*
X47500Y69500D02*
D03*
X41500Y105000D02*
D03*
X48000Y100000D02*
D03*
X100500Y77000D02*
D03*
X120000Y66000D02*
D03*
X52000Y85000D02*
D03*
X59000Y74000D02*
D03*
X104000Y72500D02*
D03*
X58732Y70732D02*
D03*
X56500Y97500D02*
D03*
X112000Y92500D02*
D03*
X51922Y97422D02*
D03*
X124000Y104000D02*
D03*
X115000D02*
D03*
X104000Y77000D02*
D03*
X110000Y89000D02*
D03*
X157749Y65251D02*
D03*
X179789Y74075D02*
D03*
X171000Y97500D02*
D03*
X127000Y101000D02*
D03*
X156500Y116500D02*
D03*
M02*
