M48
;Layer_Color=9474304
;FILE_FORMAT=2:5
INCH,LZ
;TYPE=PLATED
T1F00S00C0.01000
T3F00S00C0.03600
T4F00S00C0.07000
%
T01
X0007Y0026
X0008Y00335
X0011Y00385
X00215Y00375
X0021Y0027
X00295Y00415
X00365
X00545Y00465
X0053Y0033
Y0028
X0065Y0036
X00745Y0038
X00735Y00515
X0085Y0053
Y0071
X00735Y00715
Y00645
X00765Y00675
X00595Y00655
X0061Y00635
X0058732Y0070732
X0059Y0074
X00475Y00695
X00385Y0078
X00275Y00775
X00235Y0085
X00175Y0081
X001
X00315Y0096191
X00415Y0105
X0048Y01
X0051922Y0097422
X00565Y00975
X00705
Y01085
Y0117
X0089Y012
X0088Y01085
X00865Y0097
X0091Y00975
X0075586Y0090414
X0048Y00915
Y00885
X0052Y0085
X00465Y0116
X0039Y0118
X0102Y01135
Y01105
X0111
Y01135
X0115Y0104
X0124
X0127Y0101
Y00975
X01285Y01105
Y0114
X01565Y01165
X0171Y00975
X0179789Y0074075
X01805Y00635
Y00595
Y00545
X0189Y006
Y0063
Y0066
X01885Y00385
X01905Y00345
Y0031
X01895Y0027
X01855Y00255
X01805Y0026
X01815Y00385
X01635Y0048
X01475
X0125
X01245Y0057
X01305
X013Y00645
X012Y0066
X0121Y0078
X0117993Y0077493
X01165Y00845
X011Y00825
X0107Y00835
X011Y0089
X0112Y00925
X0104Y0077
X01005
X0104Y00725
X01075Y0039
X0111018Y0039018
X0112Y0035
X01215Y0036
X0123Y003
X0127Y00265
X0137
X01015Y0037
X0157749Y0065251
T03
X0016158Y0031189
X0026
X0035842
X0059815
X0069657
X00795
X0155157Y00325
X0165
X0174843
X0184685
T04
X006Y0114
X008
M30
