G04*
G04 #@! TF.GenerationSoftware,Altium Limited,Altium Designer,21.8.1 (53)*
G04*
G04 Layer_Color=2752767*
%FSLAX25Y25*%
%MOIN*%
G70*
G04*
G04 #@! TF.SameCoordinates,187DA05A-B4E4-4C7B-AEA6-211E795FDF11*
G04*
G04*
G04 #@! TF.FilePolarity,Positive*
G04*
G01*
G75*
%ADD11C,0.01000*%
%ADD60C,0.00200*%
%ADD61C,0.00267*%
D11*
X20079Y118110D02*
X19962Y119109D01*
X19618Y120054D01*
X19065Y120894D01*
X18334Y121584D01*
X17463Y122087D01*
X16500Y122375D01*
X15496Y122434D01*
X14506Y122259D01*
X13583Y121861D01*
X12776Y121260D01*
X12130Y120490D01*
X11678Y119591D01*
X11447Y118613D01*
Y117607D01*
X11678Y116629D01*
X12130Y115731D01*
X12776Y114960D01*
X13583Y114360D01*
X14506Y113962D01*
X15496Y113787D01*
X16500Y113845D01*
X17463Y114134D01*
X18334Y114637D01*
X19065Y115326D01*
X19618Y116167D01*
X19962Y117112D01*
X20079Y118110D01*
X189370D02*
X189253Y119109D01*
X188909Y120054D01*
X188357Y120894D01*
X187626Y121584D01*
X186755Y122087D01*
X185791Y122375D01*
X184788Y122434D01*
X183797Y122259D01*
X182874Y121861D01*
X182068Y121260D01*
X181421Y120490D01*
X180970Y119591D01*
X180738Y118613D01*
Y117607D01*
X180970Y116629D01*
X181421Y115731D01*
X182068Y114960D01*
X182874Y114360D01*
X183797Y113962D01*
X184788Y113787D01*
X185791Y113845D01*
X186755Y114134D01*
X187626Y114637D01*
X188357Y115326D01*
X188909Y116167D01*
X189253Y117112D01*
X189370Y118110D01*
X0Y0D02*
X200000D01*
X0Y140000D02*
X200000D01*
Y0D02*
Y140000D01*
X0Y0D02*
Y140000D01*
D60*
X78700Y30389D02*
Y31989D01*
X80300D01*
Y30389D01*
X78700D01*
X68858D02*
Y31989D01*
X70458D01*
Y30389D01*
X68858D01*
X59015D02*
Y31989D01*
X60615D01*
Y30389D01*
X59015D01*
X183885Y31700D02*
Y33300D01*
X185485D01*
Y31700D01*
X183885D01*
X174042D02*
Y33300D01*
X175643D01*
Y31700D01*
X174042D01*
X164200D02*
Y33300D01*
X165800D01*
Y31700D01*
X164200D01*
X154358D02*
Y33300D01*
X155957D01*
Y31700D01*
X154358D01*
X15358Y30389D02*
Y31989D01*
X16958D01*
Y30389D01*
X15358D01*
X25200D02*
Y31989D01*
X26800D01*
Y30389D01*
X25200D01*
X35043D02*
Y31989D01*
X36643D01*
Y30389D01*
X35043D01*
X80000Y113200D02*
X79200Y114800D01*
X80800D01*
X80000Y113200D01*
X60000D02*
X59200Y114800D01*
X60800D01*
X60000Y113200D01*
X21000Y26200D02*
X21400Y26600D01*
X21800D01*
X21400Y27000D01*
X21800Y27400D01*
X21400D01*
X21000Y27800D01*
X20600Y27400D01*
X20200D01*
X20600Y27000D01*
X20200Y26600D01*
X20600D01*
X21000Y26200D01*
X17500Y80200D02*
X17900Y80600D01*
X18300D01*
X17900Y81000D01*
X18300Y81400D01*
X17900D01*
X17500Y81800D01*
X17100Y81400D01*
X16700D01*
X17100Y81000D01*
X16700Y80600D01*
X17100D01*
X17500Y80200D01*
X10000D02*
X10400Y80600D01*
X10800D01*
X10400Y81000D01*
X10800Y81400D01*
X10400D01*
X10000Y81800D01*
X9600Y81400D01*
X9200D01*
X9600Y81000D01*
X9200Y80600D01*
X9600D01*
X10000Y80200D01*
X27500Y76700D02*
X27900Y77100D01*
X28300D01*
X27900Y77500D01*
X28300Y77900D01*
X27900D01*
X27500Y78300D01*
X27100Y77900D01*
X26700D01*
X27100Y77500D01*
X26700Y77100D01*
X27100D01*
X27500Y76700D01*
X7000Y25200D02*
X7400Y25600D01*
X7800D01*
X7400Y26000D01*
X7800Y26400D01*
X7400D01*
X7000Y26800D01*
X6600Y26400D01*
X6200D01*
X6600Y26000D01*
X6200Y25600D01*
X6600D01*
X7000Y25200D01*
X61000Y62700D02*
X61400Y63100D01*
X61800D01*
X61400Y63500D01*
X61800Y63900D01*
X61400D01*
X61000Y64300D01*
X60600Y63900D01*
X60200D01*
X60600Y63500D01*
X60200Y63100D01*
X60600D01*
X61000Y62700D01*
X59500Y64700D02*
X59900Y65100D01*
X60300D01*
X59900Y65500D01*
X60300Y65900D01*
X59900D01*
X59500Y66300D01*
X59100Y65900D01*
X58700D01*
X59100Y65500D01*
X58700Y65100D01*
X59100D01*
X59500Y64700D01*
X74500Y37200D02*
X74900Y37600D01*
X75300D01*
X74900Y38000D01*
X75300Y38400D01*
X74900D01*
X74500Y38800D01*
X74100Y38400D01*
X73700D01*
X74100Y38000D01*
X73700Y37600D01*
X74100D01*
X74500Y37200D01*
X130500Y56200D02*
X130900Y56600D01*
X131300D01*
X130900Y57000D01*
X131300Y57400D01*
X130900D01*
X130500Y57800D01*
X130100Y57400D01*
X129700D01*
X130100Y57000D01*
X129700Y56600D01*
X130100D01*
X130500Y56200D01*
X124500D02*
X124900Y56600D01*
X125300D01*
X124900Y57000D01*
X125300Y57400D01*
X124900D01*
X124500Y57800D01*
X124100Y57400D01*
X123700D01*
X124100Y57000D01*
X123700Y56600D01*
X124100D01*
X124500Y56200D01*
X125000Y47200D02*
X125400Y47600D01*
X125800D01*
X125400Y48000D01*
X125800Y48400D01*
X125400D01*
X125000Y48800D01*
X124600Y48400D01*
X124200D01*
X124600Y48000D01*
X124200Y47600D01*
X124600D01*
X125000Y47200D01*
X86500Y96200D02*
X86900Y96600D01*
X87300D01*
X86900Y97000D01*
X87300Y97400D01*
X86900D01*
X86500Y97800D01*
X86100Y97400D01*
X85700D01*
X86100Y97000D01*
X85700Y96600D01*
X86100D01*
X86500Y96200D01*
X91000Y96700D02*
X91400Y97100D01*
X91800D01*
X91400Y97500D01*
X91800Y97900D01*
X91400D01*
X91000Y98300D01*
X90600Y97900D01*
X90200D01*
X90600Y97500D01*
X90200Y97100D01*
X90600D01*
X91000Y96700D01*
X48000Y87700D02*
X48400Y88100D01*
X48800D01*
X48400Y88500D01*
X48800Y88900D01*
X48400D01*
X48000Y89300D01*
X47600Y88900D01*
X47200D01*
X47600Y88500D01*
X47200Y88100D01*
X47600D01*
X48000Y87700D01*
Y90700D02*
X48400Y91100D01*
X48800D01*
X48400Y91500D01*
X48800Y91900D01*
X48400D01*
X48000Y92300D01*
X47600Y91900D01*
X47200D01*
X47600Y91500D01*
X47200Y91100D01*
X47600D01*
X48000Y90700D01*
X75586Y89614D02*
X75986Y90014D01*
X76386D01*
X75986Y90414D01*
X76386Y90814D01*
X75986D01*
X75586Y91214D01*
X75186Y90814D01*
X74786D01*
X75186Y90414D01*
X74786Y90014D01*
X75186D01*
X75586Y89614D01*
X8000Y32700D02*
X8400Y33100D01*
X8800D01*
X8400Y33500D01*
X8800Y33900D01*
X8400D01*
X8000Y34300D01*
X7600Y33900D01*
X7200D01*
X7600Y33500D01*
X7200Y33100D01*
X7600D01*
X8000Y32700D01*
X21500Y36700D02*
X21900Y37100D01*
X22300D01*
X21900Y37500D01*
X22300Y37900D01*
X21900D01*
X21500Y38300D01*
X21100Y37900D01*
X20700D01*
X21100Y37500D01*
X20700Y37100D01*
X21100D01*
X21500Y36700D01*
X53000Y27200D02*
X53400Y27600D01*
X53800D01*
X53400Y28000D01*
X53800Y28400D01*
X53400D01*
X53000Y28800D01*
X52600Y28400D01*
X52200D01*
X52600Y28000D01*
X52200Y27600D01*
X52600D01*
X53000Y27200D01*
Y32200D02*
X53400Y32600D01*
X53800D01*
X53400Y33000D01*
X53800Y33400D01*
X53400D01*
X53000Y33800D01*
X52600Y33400D01*
X52200D01*
X52600Y33000D01*
X52200Y32600D01*
X52600D01*
X53000Y32200D01*
X137000Y25700D02*
X137400Y26100D01*
X137800D01*
X137400Y26500D01*
X137800Y26900D01*
X137400D01*
X137000Y27300D01*
X136600Y26900D01*
X136200D01*
X136600Y26500D01*
X136200Y26100D01*
X136600D01*
X137000Y25700D01*
X127000D02*
X127400Y26100D01*
X127800D01*
X127400Y26500D01*
X127800Y26900D01*
X127400D01*
X127000Y27300D01*
X126600Y26900D01*
X126200D01*
X126600Y26500D01*
X126200Y26100D01*
X126600D01*
X127000Y25700D01*
X189500Y26200D02*
X189900Y26600D01*
X190300D01*
X189900Y27000D01*
X190300Y27400D01*
X189900D01*
X189500Y27800D01*
X189100Y27400D01*
X188700D01*
X189100Y27000D01*
X188700Y26600D01*
X189100D01*
X189500Y26200D01*
X190500Y30200D02*
X190900Y30600D01*
X191300D01*
X190900Y31000D01*
X191300Y31400D01*
X190900D01*
X190500Y31800D01*
X190100Y31400D01*
X189700D01*
X190100Y31000D01*
X189700Y30600D01*
X190100D01*
X190500Y30200D01*
X185500Y24700D02*
X185900Y25100D01*
X186300D01*
X185900Y25500D01*
X186300Y25900D01*
X185900D01*
X185500Y26300D01*
X185100Y25900D01*
X184700D01*
X185100Y25500D01*
X184700Y25100D01*
X185100D01*
X185500Y24700D01*
X180500Y25200D02*
X180900Y25600D01*
X181300D01*
X180900Y26000D01*
X181300Y26400D01*
X180900D01*
X180500Y26800D01*
X180100Y26400D01*
X179700D01*
X180100Y26000D01*
X179700Y25600D01*
X180100D01*
X180500Y25200D01*
X190500Y33700D02*
X190900Y34100D01*
X191300D01*
X190900Y34500D01*
X191300Y34900D01*
X190900D01*
X190500Y35300D01*
X190100Y34900D01*
X189700D01*
X190100Y34500D01*
X189700Y34100D01*
X190100D01*
X190500Y33700D01*
X188500Y37700D02*
X188900Y38100D01*
X189300D01*
X188900Y38500D01*
X189300Y38900D01*
X188900D01*
X188500Y39300D01*
X188100Y38900D01*
X187700D01*
X188100Y38500D01*
X187700Y38100D01*
X188100D01*
X188500Y37700D01*
X181500D02*
X181900Y38100D01*
X182300D01*
X181900Y38500D01*
X182300Y38900D01*
X181900D01*
X181500Y39300D01*
X181100Y38900D01*
X180700D01*
X181100Y38500D01*
X180700Y38100D01*
X181100D01*
X181500Y37700D01*
X189000Y62200D02*
X189400Y62600D01*
X189800D01*
X189400Y63000D01*
X189800Y63400D01*
X189400D01*
X189000Y63800D01*
X188600Y63400D01*
X188200D01*
X188600Y63000D01*
X188200Y62600D01*
X188600D01*
X189000Y62200D01*
Y59200D02*
X189400Y59600D01*
X189800D01*
X189400Y60000D01*
X189800Y60400D01*
X189400D01*
X189000Y60800D01*
X188600Y60400D01*
X188200D01*
X188600Y60000D01*
X188200Y59600D01*
X188600D01*
X189000Y59200D01*
Y65200D02*
X189400Y65600D01*
X189800D01*
X189400Y66000D01*
X189800Y66400D01*
X189400D01*
X189000Y66800D01*
X188600Y66400D01*
X188200D01*
X188600Y66000D01*
X188200Y65600D01*
X188600D01*
X189000Y65200D01*
X180500Y53700D02*
X180900Y54100D01*
X181300D01*
X180900Y54500D01*
X181300Y54900D01*
X180900D01*
X180500Y55300D01*
X180100Y54900D01*
X179700D01*
X180100Y54500D01*
X179700Y54100D01*
X180100D01*
X180500Y53700D01*
Y58700D02*
X180900Y59100D01*
X181300D01*
X180900Y59500D01*
X181300Y59900D01*
X180900D01*
X180500Y60300D01*
X180100Y59900D01*
X179700D01*
X180100Y59500D01*
X179700Y59100D01*
X180100D01*
X180500Y58700D01*
Y62700D02*
X180900Y63100D01*
X181300D01*
X180900Y63500D01*
X181300Y63900D01*
X180900D01*
X180500Y64300D01*
X180100Y63900D01*
X179700D01*
X180100Y63500D01*
X179700Y63100D01*
X180100D01*
X180500Y62700D01*
X128500Y109700D02*
X128900Y110100D01*
X129300D01*
X128900Y110500D01*
X129300Y110900D01*
X128900D01*
X128500Y111300D01*
X128100Y110900D01*
X127700D01*
X128100Y110500D01*
X127700Y110100D01*
X128100D01*
X128500Y109700D01*
Y113200D02*
X128900Y113600D01*
X129300D01*
X128900Y114000D01*
X129300Y114400D01*
X128900D01*
X128500Y114800D01*
X128100Y114400D01*
X127700D01*
X128100Y114000D01*
X127700Y113600D01*
X128100D01*
X128500Y113200D01*
X111000Y109700D02*
X111400Y110100D01*
X111800D01*
X111400Y110500D01*
X111800Y110900D01*
X111400D01*
X111000Y111300D01*
X110600Y110900D01*
X110200D01*
X110600Y110500D01*
X110200Y110100D01*
X110600D01*
X111000Y109700D01*
Y112700D02*
X111400Y113100D01*
X111800D01*
X111400Y113500D01*
X111800Y113900D01*
X111400D01*
X111000Y114300D01*
X110600Y113900D01*
X110200D01*
X110600Y113500D01*
X110200Y113100D01*
X110600D01*
X111000Y112700D01*
X102000Y109700D02*
X102400Y110100D01*
X102800D01*
X102400Y110500D01*
X102800Y110900D01*
X102400D01*
X102000Y111300D01*
X101600Y110900D01*
X101200D01*
X101600Y110500D01*
X101200Y110100D01*
X101600D01*
X102000Y109700D01*
Y112700D02*
X102400Y113100D01*
X102800D01*
X102400Y113500D01*
X102800Y113900D01*
X102400D01*
X102000Y114300D01*
X101600Y113900D01*
X101200D01*
X101600Y113500D01*
X101200Y113100D01*
X101600D01*
X102000Y112700D01*
X88000Y107700D02*
X88400Y108100D01*
X88800D01*
X88400Y108500D01*
X88800Y108900D01*
X88400D01*
X88000Y109300D01*
X87600Y108900D01*
X87200D01*
X87600Y108500D01*
X87200Y108100D01*
X87600D01*
X88000Y107700D01*
X89000Y119200D02*
X89400Y119600D01*
X89800D01*
X89400Y120000D01*
X89800Y120400D01*
X89400D01*
X89000Y120800D01*
X88600Y120400D01*
X88200D01*
X88600Y120000D01*
X88200Y119600D01*
X88600D01*
X89000Y119200D01*
X70500Y107700D02*
X70900Y108100D01*
X71300D01*
X70900Y108500D01*
X71300Y108900D01*
X70900D01*
X70500Y109300D01*
X70100Y108900D01*
X69700D01*
X70100Y108500D01*
X69700Y108100D01*
X70100D01*
X70500Y107700D01*
Y116200D02*
X70900Y116600D01*
X71300D01*
X70900Y117000D01*
X71300Y117400D01*
X70900D01*
X70500Y117800D01*
X70100Y117400D01*
X69700D01*
X70100Y117000D01*
X69700Y116600D01*
X70100D01*
X70500Y116200D01*
X163500Y47200D02*
X163900Y47600D01*
X164300D01*
X163900Y48000D01*
X164300Y48400D01*
X163900D01*
X163500Y48800D01*
X163100Y48400D01*
X162700D01*
X163100Y48000D01*
X162700Y47600D01*
X163100D01*
X163500Y47200D01*
X39000Y117200D02*
X39400Y117600D01*
X39800D01*
X39400Y118000D01*
X39800Y118400D01*
X39400D01*
X39000Y118800D01*
X38600Y118400D01*
X38200D01*
X38600Y118000D01*
X38200Y117600D01*
X38600D01*
X39000Y117200D01*
X46500Y115200D02*
X46900Y115600D01*
X47300D01*
X46900Y116000D01*
X47300Y116400D01*
X46900D01*
X46500Y116800D01*
X46100Y116400D01*
X45700D01*
X46100Y116000D01*
X45700Y115600D01*
X46100D01*
X46500Y115200D01*
X147500Y47200D02*
X147900Y47600D01*
X148300D01*
X147900Y48000D01*
X148300Y48400D01*
X147900D01*
X147500Y48800D01*
X147100Y48400D01*
X146700D01*
X147100Y48000D01*
X146700Y47600D01*
X147100D01*
X147500Y47200D01*
X70500Y96700D02*
X70900Y97100D01*
X71300D01*
X70900Y97500D01*
X71300Y97900D01*
X70900D01*
X70500Y98300D01*
X70100Y97900D01*
X69700D01*
X70100Y97500D01*
X69700Y97100D01*
X70100D01*
X70500Y96700D01*
X116500Y83700D02*
X116900Y84100D01*
X117300D01*
X116900Y84500D01*
X117300Y84900D01*
X116900D01*
X116500Y85300D01*
X116100Y84900D01*
X115700D01*
X116100Y84500D01*
X115700Y84100D01*
X116100D01*
X116500Y83700D01*
X110000Y81700D02*
X110400Y82100D01*
X110800D01*
X110400Y82500D01*
X110800Y82900D01*
X110400D01*
X110000Y83300D01*
X109600Y82900D01*
X109200D01*
X109600Y82500D01*
X109200Y82100D01*
X109600D01*
X110000Y81700D01*
X107000Y82700D02*
X107400Y83100D01*
X107800D01*
X107400Y83500D01*
X107800Y83900D01*
X107400D01*
X107000Y84300D01*
X106600Y83900D01*
X106200D01*
X106600Y83500D01*
X106200Y83100D01*
X106600D01*
X107000Y82700D01*
X11000Y37700D02*
X11400Y38100D01*
X11800D01*
X11400Y38500D01*
X11800Y38900D01*
X11400D01*
X11000Y39300D01*
X10600Y38900D01*
X10200D01*
X10600Y38500D01*
X10200Y38100D01*
X10600D01*
X11000Y37700D01*
X29500Y40700D02*
X29900Y41100D01*
X30300D01*
X29900Y41500D01*
X30300Y41900D01*
X29900D01*
X29500Y42300D01*
X29100Y41900D01*
X28700D01*
X29100Y41500D01*
X28700Y41100D01*
X29100D01*
X29500Y40700D01*
X36500D02*
X36900Y41100D01*
X37300D01*
X36900Y41500D01*
X37300Y41900D01*
X36900D01*
X36500Y42300D01*
X36100Y41900D01*
X35700D01*
X36100Y41500D01*
X35700Y41100D01*
X36100D01*
X36500Y40700D01*
X54500Y45700D02*
X54900Y46100D01*
X55300D01*
X54900Y46500D01*
X55300Y46900D01*
X54900D01*
X54500Y47300D01*
X54100Y46900D01*
X53700D01*
X54100Y46500D01*
X53700Y46100D01*
X54100D01*
X54500Y45700D01*
X65000Y35200D02*
X65400Y35600D01*
X65800D01*
X65400Y36000D01*
X65800Y36400D01*
X65400D01*
X65000Y36800D01*
X64600Y36400D01*
X64200D01*
X64600Y36000D01*
X64200Y35600D01*
X64600D01*
X65000Y35200D01*
X130000Y63700D02*
X130400Y64100D01*
X130800D01*
X130400Y64500D01*
X130800Y64900D01*
X130400D01*
X130000Y65300D01*
X129600Y64900D01*
X129200D01*
X129600Y64500D01*
X129200Y64100D01*
X129600D01*
X130000Y63700D01*
X127000Y96700D02*
X127400Y97100D01*
X127800D01*
X127400Y97500D01*
X127800Y97900D01*
X127400D01*
X127000Y98300D01*
X126600Y97900D01*
X126200D01*
X126600Y97500D01*
X126200Y97100D01*
X126600D01*
X127000Y96700D01*
X85000Y52200D02*
X85400Y52600D01*
X85800D01*
X85400Y53000D01*
X85800Y53400D01*
X85400D01*
X85000Y53800D01*
X84600Y53400D01*
X84200D01*
X84600Y53000D01*
X84200Y52600D01*
X84600D01*
X85000Y52200D01*
X73500Y63700D02*
X73900Y64100D01*
X74300D01*
X73900Y64500D01*
X74300Y64900D01*
X73900D01*
X73500Y65300D01*
X73100Y64900D01*
X72700D01*
X73100Y64500D01*
X72700Y64100D01*
X73100D01*
X73500Y63700D01*
Y70700D02*
X73900Y71100D01*
X74300D01*
X73900Y71500D01*
X74300Y71900D01*
X73900D01*
X73500Y72300D01*
X73100Y71900D01*
X72700D01*
X73100Y71500D01*
X72700Y71100D01*
X73100D01*
X73500Y70700D01*
X117993Y76693D02*
X118393Y77093D01*
X118793D01*
X118393Y77493D01*
X118793Y77893D01*
X118393D01*
X117993Y78293D01*
X117593Y77893D01*
X117193D01*
X117593Y77493D01*
X117193Y77093D01*
X117593D01*
X117993Y76693D01*
X121000Y77200D02*
X121400Y77600D01*
X121800D01*
X121400Y78000D01*
X121800Y78400D01*
X121400D01*
X121000Y78800D01*
X120600Y78400D01*
X120200D01*
X120600Y78000D01*
X120200Y77600D01*
X120600D01*
X121000Y77200D01*
X101500Y36200D02*
X101900Y36600D01*
X102300D01*
X101900Y37000D01*
X102300Y37400D01*
X101900D01*
X101500Y37800D01*
X101100Y37400D01*
X100700D01*
X101100Y37000D01*
X100700Y36600D01*
X101100D01*
X101500Y36200D01*
X123000Y29200D02*
X123400Y29600D01*
X123800D01*
X123400Y30000D01*
X123800Y30400D01*
X123400D01*
X123000Y30800D01*
X122600Y30400D01*
X122200D01*
X122600Y30000D01*
X122200Y29600D01*
X122600D01*
X123000Y29200D01*
X112000Y34200D02*
X112400Y34600D01*
X112800D01*
X112400Y35000D01*
X112800Y35400D01*
X112400D01*
X112000Y35800D01*
X111600Y35400D01*
X111200D01*
X111600Y35000D01*
X111200Y34600D01*
X111600D01*
X112000Y34200D01*
X121500Y35200D02*
X121900Y35600D01*
X122300D01*
X121900Y36000D01*
X122300Y36400D01*
X121900D01*
X121500Y36800D01*
X121100Y36400D01*
X120700D01*
X121100Y36000D01*
X120700Y35600D01*
X121100D01*
X121500Y35200D01*
X111018Y38218D02*
X111418Y38618D01*
X111818D01*
X111418Y39018D01*
X111818Y39418D01*
X111418D01*
X111018Y39818D01*
X110618Y39418D01*
X110218D01*
X110618Y39018D01*
X110218Y38618D01*
X110618D01*
X111018Y38218D01*
X107500Y38200D02*
X107900Y38600D01*
X108300D01*
X107900Y39000D01*
X108300Y39400D01*
X107900D01*
X107500Y39800D01*
X107100Y39400D01*
X106700D01*
X107100Y39000D01*
X106700Y38600D01*
X107100D01*
X107500Y38200D01*
X73500Y50700D02*
X73900Y51100D01*
X74300D01*
X73900Y51500D01*
X74300Y51900D01*
X73900D01*
X73500Y52300D01*
X73100Y51900D01*
X72700D01*
X73100Y51500D01*
X72700Y51100D01*
X73100D01*
X73500Y50700D01*
X38500Y77200D02*
X38900Y77600D01*
X39300D01*
X38900Y78000D01*
X39300Y78400D01*
X38900D01*
X38500Y78800D01*
X38100Y78400D01*
X37700D01*
X38100Y78000D01*
X37700Y77600D01*
X38100D01*
X38500Y77200D01*
X31500Y95391D02*
X31900Y95791D01*
X32300D01*
X31900Y96191D01*
X32300Y96591D01*
X31900D01*
X31500Y96991D01*
X31100Y96591D01*
X30700D01*
X31100Y96191D01*
X30700Y95791D01*
X31100D01*
X31500Y95391D01*
X23500Y84200D02*
X23900Y84600D01*
X24300D01*
X23900Y85000D01*
X24300Y85400D01*
X23900D01*
X23500Y85800D01*
X23100Y85400D01*
X22700D01*
X23100Y85000D01*
X22700Y84600D01*
X23100D01*
X23500Y84200D01*
X76500Y66700D02*
X76900Y67100D01*
X77300D01*
X76900Y67500D01*
X77300Y67900D01*
X76900D01*
X76500Y68300D01*
X76100Y67900D01*
X75700D01*
X76100Y67500D01*
X75700Y67100D01*
X76100D01*
X76500Y66700D01*
X85000Y70200D02*
X85400Y70600D01*
X85800D01*
X85400Y71000D01*
X85800Y71400D01*
X85400D01*
X85000Y71800D01*
X84600Y71400D01*
X84200D01*
X84600Y71000D01*
X84200Y70600D01*
X84600D01*
X85000Y70200D01*
X47500Y68700D02*
X47900Y69100D01*
X48300D01*
X47900Y69500D01*
X48300Y69900D01*
X47900D01*
X47500Y70300D01*
X47100Y69900D01*
X46700D01*
X47100Y69500D01*
X46700Y69100D01*
X47100D01*
X47500Y68700D01*
X41500Y104200D02*
X41900Y104600D01*
X42300D01*
X41900Y105000D01*
X42300Y105400D01*
X41900D01*
X41500Y105800D01*
X41100Y105400D01*
X40700D01*
X41100Y105000D01*
X40700Y104600D01*
X41100D01*
X41500Y104200D01*
X48000Y99200D02*
X48400Y99600D01*
X48800D01*
X48400Y100000D01*
X48800Y100400D01*
X48400D01*
X48000Y100800D01*
X47600Y100400D01*
X47200D01*
X47600Y100000D01*
X47200Y99600D01*
X47600D01*
X48000Y99200D01*
X100500Y76200D02*
X100900Y76600D01*
X101300D01*
X100900Y77000D01*
X101300Y77400D01*
X100900D01*
X100500Y77800D01*
X100100Y77400D01*
X99700D01*
X100100Y77000D01*
X99700Y76600D01*
X100100D01*
X100500Y76200D01*
X120000Y65200D02*
X120400Y65600D01*
X120800D01*
X120400Y66000D01*
X120800Y66400D01*
X120400D01*
X120000Y66800D01*
X119600Y66400D01*
X119200D01*
X119600Y66000D01*
X119200Y65600D01*
X119600D01*
X120000Y65200D01*
X52000Y84200D02*
X52400Y84600D01*
X52800D01*
X52400Y85000D01*
X52800Y85400D01*
X52400D01*
X52000Y85800D01*
X51600Y85400D01*
X51200D01*
X51600Y85000D01*
X51200Y84600D01*
X51600D01*
X52000Y84200D01*
X59000Y73200D02*
X59400Y73600D01*
X59800D01*
X59400Y74000D01*
X59800Y74400D01*
X59400D01*
X59000Y74800D01*
X58600Y74400D01*
X58200D01*
X58600Y74000D01*
X58200Y73600D01*
X58600D01*
X59000Y73200D01*
X104000Y71700D02*
X104400Y72100D01*
X104800D01*
X104400Y72500D01*
X104800Y72900D01*
X104400D01*
X104000Y73300D01*
X103600Y72900D01*
X103200D01*
X103600Y72500D01*
X103200Y72100D01*
X103600D01*
X104000Y71700D01*
X58732Y69932D02*
X59132Y70332D01*
X59532D01*
X59132Y70732D01*
X59532Y71132D01*
X59132D01*
X58732Y71532D01*
X58332Y71132D01*
X57932D01*
X58332Y70732D01*
X57932Y70332D01*
X58332D01*
X58732Y69932D01*
X56500Y96700D02*
X56900Y97100D01*
X57300D01*
X56900Y97500D01*
X57300Y97900D01*
X56900D01*
X56500Y98300D01*
X56100Y97900D01*
X55700D01*
X56100Y97500D01*
X55700Y97100D01*
X56100D01*
X56500Y96700D01*
X112000Y91700D02*
X112400Y92100D01*
X112800D01*
X112400Y92500D01*
X112800Y92900D01*
X112400D01*
X112000Y93300D01*
X111600Y92900D01*
X111200D01*
X111600Y92500D01*
X111200Y92100D01*
X111600D01*
X112000Y91700D01*
X51922Y96622D02*
X52322Y97022D01*
X52722D01*
X52322Y97422D01*
X52722Y97822D01*
X52322D01*
X51922Y98222D01*
X51522Y97822D01*
X51122D01*
X51522Y97422D01*
X51122Y97022D01*
X51522D01*
X51922Y96622D01*
X124000Y103200D02*
X124400Y103600D01*
X124800D01*
X124400Y104000D01*
X124800Y104400D01*
X124400D01*
X124000Y104800D01*
X123600Y104400D01*
X123200D01*
X123600Y104000D01*
X123200Y103600D01*
X123600D01*
X124000Y103200D01*
X115000D02*
X115400Y103600D01*
X115800D01*
X115400Y104000D01*
X115800Y104400D01*
X115400D01*
X115000Y104800D01*
X114600Y104400D01*
X114200D01*
X114600Y104000D01*
X114200Y103600D01*
X114600D01*
X115000Y103200D01*
X104000Y76200D02*
X104400Y76600D01*
X104800D01*
X104400Y77000D01*
X104800Y77400D01*
X104400D01*
X104000Y77800D01*
X103600Y77400D01*
X103200D01*
X103600Y77000D01*
X103200Y76600D01*
X103600D01*
X104000Y76200D01*
X110000Y88200D02*
X110400Y88600D01*
X110800D01*
X110400Y89000D01*
X110800Y89400D01*
X110400D01*
X110000Y89800D01*
X109600Y89400D01*
X109200D01*
X109600Y89000D01*
X109200Y88600D01*
X109600D01*
X110000Y88200D01*
X157749Y64451D02*
X158149Y64851D01*
X158549D01*
X158149Y65251D01*
X158549Y65651D01*
X158149D01*
X157749Y66051D01*
X157349Y65651D01*
X156949D01*
X157349Y65251D01*
X156949Y64851D01*
X157349D01*
X157749Y64451D01*
X179789Y73275D02*
X180189Y73675D01*
X180589D01*
X180189Y74075D01*
X180589Y74475D01*
X180189D01*
X179789Y74875D01*
X179389Y74475D01*
X178989D01*
X179389Y74075D01*
X178989Y73675D01*
X179389D01*
X179789Y73275D01*
X171000Y96700D02*
X171400Y97100D01*
X171800D01*
X171400Y97500D01*
X171800Y97900D01*
X171400D01*
X171000Y98300D01*
X170600Y97900D01*
X170200D01*
X170600Y97500D01*
X170200Y97100D01*
X170600D01*
X171000Y96700D01*
X127000Y100200D02*
X127400Y100600D01*
X127800D01*
X127400Y101000D01*
X127800Y101400D01*
X127400D01*
X127000Y101800D01*
X126600Y101400D01*
X126200D01*
X126600Y101000D01*
X126200Y100600D01*
X126600D01*
X127000Y100200D01*
X156500Y115700D02*
X156900Y116100D01*
X157300D01*
X156900Y116500D01*
X157300Y116900D01*
X156900D01*
X156500Y117300D01*
X156100Y116900D01*
X155700D01*
X156100Y116500D01*
X155700Y116100D01*
X156100D01*
X156500Y115700D01*
D61*
X102800Y23000D02*
X102247Y23761D01*
X101353Y23470D01*
Y22530D01*
X102247Y22239D01*
X102800Y23000D01*
X112645D02*
X112092Y23761D01*
X111198Y23470D01*
Y22530D01*
X112092Y22239D01*
X112645Y23000D01*
X122805D02*
X122252Y23761D01*
X121358Y23470D01*
Y22530D01*
X122252Y22239D01*
X122805Y23000D01*
X132805D02*
X132252Y23761D01*
X131358Y23470D01*
Y22530D01*
X132252Y22239D01*
X132805Y23000D01*
M02*
