G04*
G04 #@! TF.GenerationSoftware,Altium Limited,Altium Designer,21.8.1 (53)*
G04*
G04 Layer_Color=65535*
%FSLAX25Y25*%
%MOIN*%
G70*
G04*
G04 #@! TF.SameCoordinates,187DA05A-B4E4-4C7B-AEA6-211E795FDF11*
G04*
G04*
G04 #@! TF.FilePolarity,Positive*
G04*
G01*
G75*
%ADD10C,0.00500*%
%ADD11C,0.01000*%
%ADD12C,0.01575*%
%ADD13C,0.00600*%
%ADD14C,0.00394*%
%ADD15C,0.00787*%
%ADD16C,0.01181*%
%ADD17C,0.00800*%
D10*
X21654Y118110D02*
X21569Y119108D01*
X21316Y120078D01*
X20904Y120990D01*
X20343Y121820D01*
X19650Y122543D01*
X18844Y123139D01*
X17950Y123590D01*
X16992Y123883D01*
X15999Y124010D01*
X14998Y123968D01*
X14019Y123757D01*
X13089Y123383D01*
X12236Y122858D01*
X11485Y122196D01*
X10855Y121417D01*
X10367Y120543D01*
X10033Y119598D01*
X9864Y118611D01*
Y117609D01*
X10033Y116622D01*
X10367Y115678D01*
X10855Y114803D01*
X11485Y114024D01*
X12236Y113362D01*
X13089Y112837D01*
X14019Y112464D01*
X14998Y112253D01*
X15999Y112210D01*
X16992Y112337D01*
X17950Y112631D01*
X18844Y113082D01*
X19650Y113677D01*
X20343Y114400D01*
X20904Y115230D01*
X21316Y116143D01*
X21569Y117112D01*
X21654Y118110D01*
X190945D02*
X190860Y119108D01*
X190608Y120078D01*
X190195Y120990D01*
X189634Y121820D01*
X188941Y122543D01*
X188136Y123139D01*
X187241Y123590D01*
X186284Y123883D01*
X185290Y124010D01*
X184289Y123968D01*
X183310Y123757D01*
X182381Y123383D01*
X181528Y122858D01*
X180776Y122196D01*
X180147Y121417D01*
X179658Y120543D01*
X179324Y119598D01*
X179155Y118611D01*
Y117609D01*
X179324Y116622D01*
X179658Y115678D01*
X180147Y114803D01*
X180776Y114024D01*
X181528Y113362D01*
X182381Y112837D01*
X183310Y112464D01*
X184289Y112253D01*
X185290Y112210D01*
X186284Y112337D01*
X187241Y112631D01*
X188136Y113082D01*
X188941Y113677D01*
X189634Y114400D01*
X190195Y115230D01*
X190608Y116143D01*
X190860Y117112D01*
X190945Y118110D01*
X182039Y51198D02*
X186961D01*
Y55253D01*
X182039Y62221D02*
X186961D01*
Y58150D02*
Y62221D01*
X182039Y51198D02*
Y55253D01*
Y57953D02*
Y62221D01*
Y75721D02*
X186961D01*
X182039Y71665D02*
Y75721D01*
Y64698D02*
X186961D01*
X182039D02*
Y68769D01*
X186961Y71666D02*
Y75721D01*
Y64698D02*
Y68966D01*
X160537Y50940D02*
Y58814D01*
X166344D01*
X160537Y50940D02*
X166344D01*
X173234D02*
X179041D01*
X173234Y58814D02*
X179041D01*
Y50940D02*
Y58814D01*
X160537Y61314D02*
Y69188D01*
X166344D01*
X160537Y61314D02*
X166344D01*
X173234D02*
X179041D01*
X173234Y69188D02*
X179041D01*
Y61314D02*
Y69188D01*
X157698Y102039D02*
Y106961D01*
Y102039D02*
X161753D01*
X168721D02*
Y106961D01*
X164650Y102039D02*
X168721D01*
X157698Y106961D02*
X161753D01*
X164453D02*
X168721D01*
X157750Y108539D02*
Y113461D01*
Y108539D02*
X161806D01*
X168774D02*
Y113461D01*
X164702Y108539D02*
X168774D01*
X157750Y113461D02*
X161805D01*
X164505D02*
X168774D01*
X154802Y51039D02*
Y55961D01*
X150747D02*
X154802D01*
X143779Y51039D02*
Y55961D01*
X147850D01*
X150747Y51039D02*
X154802D01*
X143779D02*
X148047D01*
X131279D02*
Y55961D01*
Y51039D02*
X135335D01*
X142302D02*
Y55961D01*
X138231Y51039D02*
X142302D01*
X131279Y55961D02*
X135334D01*
X138034D02*
X142302D01*
X118779Y51039D02*
Y55961D01*
Y51039D02*
X122835D01*
X129802D02*
Y55961D01*
X125731Y51039D02*
X129802D01*
X118779Y55961D02*
X122834D01*
X125534D02*
X129802D01*
X143779Y58039D02*
Y62961D01*
Y58039D02*
X147835D01*
X154802D02*
Y62961D01*
X150731Y58039D02*
X154802D01*
X143779Y62961D02*
X147834D01*
X150534D02*
X154802D01*
X131279Y58039D02*
Y62961D01*
Y58039D02*
X135335D01*
X142302D02*
Y62961D01*
X138231Y58039D02*
X142302D01*
X131279Y62961D02*
X135334D01*
X138034D02*
X142302D01*
X118779Y58039D02*
Y62961D01*
Y58039D02*
X122835D01*
X129802D02*
Y62961D01*
X125731Y58039D02*
X129802D01*
X118779Y62961D02*
X122834D01*
X125534D02*
X129802D01*
X94488Y95039D02*
Y99961D01*
Y95039D02*
X98544D01*
X105512D02*
Y99961D01*
X101440Y95039D02*
X105512D01*
X94488Y99961D02*
X98543D01*
X101243D02*
X105512D01*
X95925Y109610D02*
X97499Y111185D01*
X96023Y109610D02*
X99074D01*
X99764Y109335D02*
Y115318D01*
X97499Y111185D02*
X99074Y109610D01*
X95236Y109334D02*
Y115318D01*
Y105476D02*
Y109334D01*
Y115318D02*
X99764D01*
Y105476D02*
Y109335D01*
X95236Y105476D02*
X99764D01*
X104758Y109610D02*
X106333Y111185D01*
X104856Y109610D02*
X107907D01*
X108597Y109335D02*
Y115318D01*
X106333Y111185D02*
X107907Y109610D01*
X104070Y109334D02*
Y115318D01*
Y105476D02*
Y109334D01*
Y115318D02*
X108597D01*
Y105476D02*
Y109335D01*
X104070Y105476D02*
X108597D01*
X113591Y109610D02*
X115166Y111185D01*
X113690Y109610D02*
X116741D01*
X117430Y109335D02*
Y115318D01*
X115166Y111185D02*
X116741Y109610D01*
X112903Y109334D02*
Y115318D01*
Y105476D02*
Y109334D01*
Y115318D02*
X117430D01*
Y105476D02*
Y109335D01*
X112903Y105476D02*
X117430D01*
X122424Y109610D02*
X123999Y111185D01*
X122523Y109610D02*
X125574D01*
X126264Y109335D02*
Y115318D01*
X123999Y111185D02*
X125574Y109610D01*
X121736Y109334D02*
Y115318D01*
Y105476D02*
Y109334D01*
Y115318D02*
X126264D01*
Y105476D02*
Y109335D01*
X121736Y105476D02*
X126264D01*
X78500Y37999D02*
Y35000D01*
X80000D01*
X80499Y35500D01*
Y37499D01*
X80000Y37999D01*
X78500D01*
X69499D02*
X67500D01*
Y36500D01*
X68500Y36999D01*
X68999D01*
X69499Y36500D01*
Y35500D01*
X68999Y35000D01*
X68000D01*
X67500Y35500D01*
X70499Y37999D02*
Y36000D01*
X71499Y35000D01*
X72498Y36000D01*
Y37999D01*
X60999Y37499D02*
X60500Y37999D01*
X59500D01*
X59000Y37499D01*
Y35500D01*
X59500Y35000D01*
X60500D01*
X60999Y35500D01*
Y36500D01*
X60000D01*
X35000Y37999D02*
Y35000D01*
X36500D01*
X36999Y35500D01*
Y37499D01*
X36500Y37999D01*
X35000D01*
X25499D02*
X23500D01*
Y36500D01*
X24500Y36999D01*
X24999D01*
X25499Y36500D01*
Y35500D01*
X24999Y35000D01*
X24000D01*
X23500Y35500D01*
X26499Y37999D02*
Y36000D01*
X27499Y35000D01*
X28498Y36000D01*
Y37999D01*
X16999Y37499D02*
X16499Y37999D01*
X15500D01*
X15000Y37499D01*
Y35500D01*
X15500Y35000D01*
X16499D01*
X16999Y35500D01*
Y36500D01*
X16000D01*
X98000Y31999D02*
X98500Y32499D01*
X99499D01*
X99999Y31999D01*
Y31499D01*
X99499Y30999D01*
X99000D01*
X99499D01*
X99999Y30500D01*
Y30000D01*
X99499Y29500D01*
X98500D01*
X98000Y30000D01*
X100999Y32499D02*
Y30500D01*
X101999Y29500D01*
X102998Y30500D01*
Y32499D01*
X103998Y31999D02*
X104498Y32499D01*
X105498D01*
X105997Y31999D01*
Y31499D01*
X105498Y30999D01*
X104998D01*
X105498D01*
X105997Y30500D01*
Y30000D01*
X105498Y29500D01*
X104498D01*
X103998Y30000D01*
X108500Y32499D02*
Y29500D01*
X110000D01*
X110499Y30000D01*
Y31999D01*
X110000Y32499D01*
X108500D01*
X111499D02*
X112499D01*
X111999D01*
Y29500D01*
X111499D01*
X112499D01*
X115498Y32499D02*
X114498D01*
X113998Y31999D01*
Y30000D01*
X114498Y29500D01*
X115498D01*
X115998Y30000D01*
Y31999D01*
X115498Y32499D01*
X119999Y31999D02*
X119500Y32499D01*
X118500D01*
X118000Y31999D01*
Y30000D01*
X118500Y29500D01*
X119500D01*
X119999Y30000D01*
X120999Y32499D02*
Y29500D01*
X122998D01*
X123998Y32499D02*
Y29500D01*
Y30500D01*
X125997Y32499D01*
X124498Y30999D01*
X125997Y29500D01*
X132999Y31999D02*
X132500Y32499D01*
X131500D01*
X131000Y31999D01*
Y30000D01*
X131500Y29500D01*
X132500D01*
X132999Y30000D01*
Y30999D01*
X132000D01*
X154000Y38000D02*
Y40999D01*
X155499D01*
X155999Y40499D01*
Y39500D01*
X155499Y39000D01*
X154000D01*
X155000D02*
X155999Y38000D01*
X164000Y40999D02*
X165999D01*
X165000D01*
Y38000D01*
X171000Y40499D02*
X171500Y40999D01*
X172500D01*
X172999Y40499D01*
Y39999D01*
X172500Y39500D01*
X172000D01*
X172500D01*
X172999Y39000D01*
Y38500D01*
X172500Y38000D01*
X171500D01*
X171000Y38500D01*
X173999Y40999D02*
Y39000D01*
X174999Y38000D01*
X175998Y39000D01*
Y40999D01*
X176998Y40499D02*
X177498Y40999D01*
X178498D01*
X178997Y40499D01*
Y39999D01*
X178498Y39500D01*
X177998D01*
X178498D01*
X178997Y39000D01*
Y38500D01*
X178498Y38000D01*
X177498D01*
X176998Y38500D01*
X185499Y40499D02*
X185000Y40999D01*
X184000D01*
X183500Y40499D01*
Y38500D01*
X184000Y38000D01*
X185000D01*
X185499Y38500D01*
Y39500D01*
X184500D01*
X63500Y132501D02*
Y134500D01*
X62500Y135500D01*
X61501Y134500D01*
Y132501D01*
X58502Y133001D02*
X59001Y132501D01*
X60001D01*
X60501Y133001D01*
Y135000D01*
X60001Y135500D01*
X59001D01*
X58502Y135000D01*
X55503Y133001D02*
X56002Y132501D01*
X57002D01*
X57502Y133001D01*
Y135000D01*
X57002Y135500D01*
X56002D01*
X55503Y135000D01*
X81501Y133501D02*
X82000Y133001D01*
X83000D01*
X83500Y133501D01*
Y135500D01*
X83000Y136000D01*
X82000D01*
X81501Y135500D01*
Y134501D01*
X82500D01*
X80501Y136000D02*
Y133001D01*
X78502Y136000D01*
Y133001D01*
X77502D02*
Y136000D01*
X76002D01*
X75503Y135500D01*
Y133501D01*
X76002Y133001D01*
X77502D01*
X130501Y122500D02*
X132500Y119501D01*
Y122500D02*
X130501Y119501D01*
X133500D02*
X134499D01*
X134000D01*
Y122500D01*
X133500Y122000D01*
X53000Y64999D02*
Y62500D01*
X53500Y62000D01*
X54500D01*
X54999Y62500D01*
Y64999D01*
X57998D02*
X55999D01*
Y63499D01*
X56999Y63999D01*
X57499D01*
X57998Y63499D01*
Y62500D01*
X57499Y62000D01*
X56499D01*
X55999Y62500D01*
X39500Y64999D02*
Y62500D01*
X40000Y62000D01*
X40999D01*
X41499Y62500D01*
Y64999D01*
X43999Y62000D02*
Y64999D01*
X42499Y63499D01*
X44498D01*
X26000Y64999D02*
Y62500D01*
X26500Y62000D01*
X27499D01*
X27999Y62500D01*
Y64999D01*
X28999Y64499D02*
X29499Y64999D01*
X30499D01*
X30998Y64499D01*
Y63999D01*
X30499Y63499D01*
X29999D01*
X30499D01*
X30998Y63000D01*
Y62500D01*
X30499Y62000D01*
X29499D01*
X28999Y62500D01*
X12500Y64999D02*
Y62500D01*
X13000Y62000D01*
X13999D01*
X14499Y62500D01*
Y64999D01*
X17498Y62000D02*
X15499D01*
X17498Y63999D01*
Y64499D01*
X16999Y64999D01*
X15999D01*
X15499Y64499D01*
X160501Y91500D02*
Y89000D01*
X161001Y88500D01*
X162000D01*
X162500Y89000D01*
Y91500D01*
X163500Y88500D02*
X164499D01*
X163999D01*
Y91500D01*
X163500Y91000D01*
X150251Y89000D02*
Y92000D01*
X151751D01*
X152251Y91500D01*
Y90500D01*
X151751Y90000D01*
X150251D01*
X151251D02*
X152251Y89000D01*
X153250D02*
X154250D01*
X153750D01*
Y92000D01*
X153250Y91500D01*
X157749Y92000D02*
X156749Y91500D01*
X155749Y90500D01*
Y89500D01*
X156249Y89000D01*
X157249D01*
X157749Y89500D01*
Y90000D01*
X157249Y90500D01*
X155749D01*
X120751Y39000D02*
Y42000D01*
X122251D01*
X122751Y41500D01*
Y40500D01*
X122251Y40000D01*
X120751D01*
X121751D02*
X122751Y39000D01*
X123750D02*
X124750D01*
X124250D01*
Y42000D01*
X123750Y41500D01*
X128249Y42000D02*
X126249D01*
Y40500D01*
X127249Y41000D01*
X127749D01*
X128249Y40500D01*
Y39500D01*
X127749Y39000D01*
X126749D01*
X126249Y39500D01*
X49999Y73751D02*
X47001D01*
Y75251D01*
X47500Y75751D01*
X48500D01*
X49000Y75251D01*
Y73751D01*
Y74751D02*
X49999Y75751D01*
Y76750D02*
Y77750D01*
Y77250D01*
X47001D01*
X47500Y76750D01*
X49999Y80749D02*
X47001D01*
X48500Y79249D01*
Y81249D01*
X39833Y73751D02*
X36834D01*
Y75251D01*
X37334Y75751D01*
X38333D01*
X38833Y75251D01*
Y73751D01*
Y74751D02*
X39833Y75751D01*
Y76750D02*
Y77750D01*
Y77250D01*
X36834D01*
X37334Y76750D01*
Y79249D02*
X36834Y79749D01*
Y80749D01*
X37334Y81249D01*
X37833D01*
X38333Y80749D01*
Y80249D01*
Y80749D01*
X38833Y81249D01*
X39333D01*
X39833Y80749D01*
Y79749D01*
X39333Y79249D01*
X29500Y73751D02*
X26500D01*
Y75251D01*
X27000Y75751D01*
X28000D01*
X28500Y75251D01*
Y73751D01*
Y74751D02*
X29500Y75751D01*
Y76750D02*
Y77750D01*
Y77250D01*
X26500D01*
X27000Y76750D01*
X29500Y81249D02*
Y79249D01*
X27500Y81249D01*
X27000D01*
X26500Y80749D01*
Y79749D01*
X27000Y79249D01*
X19500Y74251D02*
X16500D01*
Y75751D01*
X17000Y76250D01*
X18000D01*
X18500Y75751D01*
Y74251D01*
Y75251D02*
X19500Y76250D01*
Y77250D02*
Y78250D01*
Y77750D01*
X16500D01*
X17000Y77250D01*
X19500Y79749D02*
Y80749D01*
Y80249D01*
X16500D01*
X17000Y79749D01*
X170251Y96000D02*
Y99000D01*
X171751D01*
X172251Y98500D01*
Y97500D01*
X171751Y97000D01*
X170251D01*
X171251D02*
X172251Y96000D01*
X173250D02*
X174250D01*
X173750D01*
Y99000D01*
X173250Y98500D01*
X175749D02*
X176249Y99000D01*
X177249D01*
X177749Y98500D01*
Y96500D01*
X177249Y96000D01*
X176249D01*
X175749Y96500D01*
Y98500D01*
X110501Y90500D02*
Y93499D01*
X112000D01*
X112500Y93000D01*
Y92000D01*
X112000Y91500D01*
X110501D01*
X111501D02*
X112500Y90500D01*
X113500Y91000D02*
X114000Y90500D01*
X114999D01*
X115499Y91000D01*
Y93000D01*
X114999Y93499D01*
X114000D01*
X113500Y93000D01*
Y92500D01*
X114000Y92000D01*
X115499D01*
X55501Y40001D02*
Y43000D01*
X57000D01*
X57500Y42500D01*
Y41500D01*
X57000Y41000D01*
X55501D01*
X56501D02*
X57500Y40001D01*
X58500Y42500D02*
X59000Y43000D01*
X59999D01*
X60499Y42500D01*
Y42000D01*
X59999Y41500D01*
X60499Y41000D01*
Y40500D01*
X59999Y40001D01*
X59000D01*
X58500Y40500D01*
Y41000D01*
X59000Y41500D01*
X58500Y42000D01*
Y42500D01*
X59000Y41500D02*
X59999D01*
X48357Y40000D02*
Y42999D01*
X49857D01*
X50357Y42499D01*
Y41500D01*
X49857Y41000D01*
X48357D01*
X49357D02*
X50357Y40000D01*
X51356Y42999D02*
X53355D01*
Y42499D01*
X51356Y40500D01*
Y40000D01*
X41001Y40001D02*
Y43000D01*
X42500D01*
X43000Y42500D01*
Y41500D01*
X42500Y41000D01*
X41001D01*
X42000D02*
X43000Y40001D01*
X45999Y43000D02*
X45000Y42500D01*
X44000Y41500D01*
Y40500D01*
X44500Y40001D01*
X45499D01*
X45999Y40500D01*
Y41000D01*
X45499Y41500D01*
X44000D01*
X34071Y40000D02*
Y42999D01*
X35571D01*
X36071Y42499D01*
Y41500D01*
X35571Y41000D01*
X34071D01*
X35071D02*
X36071Y40000D01*
X39070Y42999D02*
X37070D01*
Y41500D01*
X38070Y41999D01*
X38570D01*
X39070Y41500D01*
Y40500D01*
X38570Y40000D01*
X37570D01*
X37070Y40500D01*
X27001Y40001D02*
Y43000D01*
X28500D01*
X29000Y42500D01*
Y41500D01*
X28500Y41000D01*
X27001D01*
X28001D02*
X29000Y40001D01*
X31499D02*
Y43000D01*
X30000Y41500D01*
X31999D01*
X19786Y40000D02*
Y42999D01*
X21285D01*
X21785Y42499D01*
Y41500D01*
X21285Y41000D01*
X19786D01*
X20785D02*
X21785Y40000D01*
X22785Y42499D02*
X23285Y42999D01*
X24284D01*
X24784Y42499D01*
Y41999D01*
X24284Y41500D01*
X23784D01*
X24284D01*
X24784Y41000D01*
Y40500D01*
X24284Y40000D01*
X23285D01*
X22785Y40500D01*
X12501Y40001D02*
Y43000D01*
X14000D01*
X14500Y42500D01*
Y41500D01*
X14000Y41000D01*
X12501D01*
X13500D02*
X14500Y40001D01*
X17499D02*
X15500D01*
X17499Y42000D01*
Y42500D01*
X16999Y43000D01*
X16000D01*
X15500Y42500D01*
X6001Y40001D02*
Y43000D01*
X7500D01*
X8000Y42500D01*
Y41500D01*
X7500Y41000D01*
X6001D01*
X7000D02*
X8000Y40001D01*
X9000D02*
X9999D01*
X9499D01*
Y43000D01*
X9000Y42500D01*
X119502Y98500D02*
Y95500D01*
Y96500D01*
X121501Y98500D01*
X120001Y97000D01*
X121501Y95500D01*
X124500Y98500D02*
X122501D01*
Y95500D01*
X124500D01*
X122501Y97000D02*
X123500D01*
X125500Y98500D02*
Y98000D01*
X126499Y97000D01*
X127499Y98000D01*
Y98500D01*
X126499Y97000D02*
Y95500D01*
X128499D02*
X129498D01*
X128999D01*
Y98500D01*
X128499Y98000D01*
X69000Y123500D02*
X68001D01*
X68500D01*
Y121000D01*
X68001Y120501D01*
X67501D01*
X67001Y121000D01*
X71999Y123500D02*
X70000D01*
Y122000D01*
X70999Y122500D01*
X71499D01*
X71999Y122000D01*
Y121000D01*
X71499Y120501D01*
X70500D01*
X70000Y121000D01*
X177503Y45500D02*
Y43000D01*
X178003Y42500D01*
X179002D01*
X179502Y43000D01*
Y45500D01*
X182501Y45000D02*
X182001Y45500D01*
X181002D01*
X180502Y45000D01*
Y44500D01*
X181002Y44000D01*
X182001D01*
X182501Y43500D01*
Y43000D01*
X182001Y42500D01*
X181002D01*
X180502Y43000D01*
X183501Y42500D02*
Y44500D01*
X184501Y45500D01*
X185500Y44500D01*
Y42500D01*
Y44000D01*
X183501D01*
X186500Y42500D02*
Y45500D01*
X187999D01*
X188499Y45000D01*
Y44000D01*
X187999Y43500D01*
X186500D01*
X187499D02*
X188499Y42500D01*
X189499Y45500D02*
X191498D01*
X190499D01*
Y42500D01*
X194497Y45500D02*
X193498Y45000D01*
X192498Y44000D01*
Y43000D01*
X192998Y42500D01*
X193997D01*
X194497Y43000D01*
Y43500D01*
X193997Y44000D01*
X192498D01*
X125252Y37000D02*
X124753Y37499D01*
X123753D01*
X123253Y37000D01*
Y36500D01*
X123753Y36000D01*
X124753D01*
X125252Y35500D01*
Y35000D01*
X124753Y34501D01*
X123753D01*
X123253Y35000D01*
X126252Y37499D02*
X128252D01*
X127252D01*
Y34501D01*
X129251Y36000D02*
X131251D01*
X132250Y37499D02*
Y34501D01*
X134250D01*
X135249Y37499D02*
X136249D01*
X135749D01*
Y34501D01*
X135249D01*
X136249D01*
X137749D02*
Y37499D01*
X139748Y34501D01*
Y37499D01*
X140747D02*
Y34501D01*
Y35500D01*
X142747Y37499D01*
X141247Y36000D01*
X142747Y34501D01*
X57004Y8749D02*
Y6250D01*
X57504Y5750D01*
X58504D01*
X59004Y6250D01*
Y8749D01*
X62003Y8250D02*
X61503Y8749D01*
X60503D01*
X60003Y8250D01*
Y7750D01*
X60503Y7250D01*
X61503D01*
X62003Y6750D01*
Y6250D01*
X61503Y5750D01*
X60503D01*
X60003Y6250D01*
X63002Y5750D02*
Y7750D01*
X64002Y8749D01*
X65002Y7750D01*
Y5750D01*
Y7250D01*
X63002D01*
X66001Y5750D02*
Y8749D01*
X67501D01*
X68001Y8250D01*
Y7250D01*
X67501Y6750D01*
X66001D01*
X67001D02*
X68001Y5750D01*
X69000Y8749D02*
X71000D01*
X70000D01*
Y5750D01*
X71999Y8250D02*
X72499Y8749D01*
X73499D01*
X73999Y8250D01*
Y7750D01*
X73499Y7250D01*
X72999D01*
X73499D01*
X73999Y6750D01*
Y6250D01*
X73499Y5750D01*
X72499D01*
X71999Y6250D01*
X74998Y5251D02*
X76998D01*
X79997Y8749D02*
X77997D01*
Y7250D01*
X78997Y7750D01*
X79497D01*
X79997Y7250D01*
Y6250D01*
X79497Y5750D01*
X78497D01*
X77997Y6250D01*
X80997Y8749D02*
Y6750D01*
X81996Y5750D01*
X82996Y6750D01*
Y8749D01*
X1251Y4504D02*
X3750D01*
X4250Y5004D01*
Y6004D01*
X3750Y6504D01*
X1251D01*
X1750Y9503D02*
X1251Y9003D01*
Y8003D01*
X1750Y7503D01*
X2250D01*
X2750Y8003D01*
Y9003D01*
X3250Y9503D01*
X3750D01*
X4250Y9003D01*
Y8003D01*
X3750Y7503D01*
X4250Y10502D02*
X2250D01*
X1251Y11502D01*
X2250Y12502D01*
X4250D01*
X2750D01*
Y10502D01*
X4250Y13501D02*
X1251D01*
Y15001D01*
X1750Y15501D01*
X2750D01*
X3250Y15001D01*
Y13501D01*
Y14501D02*
X4250Y15501D01*
X1251Y16500D02*
Y18500D01*
Y17500D01*
X4250D01*
Y21499D02*
Y19499D01*
X2250Y21499D01*
X1750D01*
X1251Y20999D01*
Y19999D01*
X1750Y19499D01*
X4749Y22498D02*
Y24498D01*
X1251Y27497D02*
Y25497D01*
X2750D01*
X2250Y26497D01*
Y26997D01*
X2750Y27497D01*
X3750D01*
X4250Y26997D01*
Y25997D01*
X3750Y25497D01*
X1251Y28496D02*
X3250D01*
X4250Y29496D01*
X3250Y30496D01*
X1251D01*
X122000Y121099D02*
Y118100D01*
X123500D01*
X123999Y118600D01*
Y120599D01*
X123500Y121099D01*
X122000D01*
X126498Y118100D02*
Y121099D01*
X124999Y119599D01*
X126998D01*
X113200Y121099D02*
Y118100D01*
X114699D01*
X115199Y118600D01*
Y120599D01*
X114699Y121099D01*
X113200D01*
X116199Y120599D02*
X116699Y121099D01*
X117698D01*
X118198Y120599D01*
Y120099D01*
X117698Y119599D01*
X117198D01*
X117698D01*
X118198Y119100D01*
Y118600D01*
X117698Y118100D01*
X116699D01*
X116199Y118600D01*
X104300Y121099D02*
Y118100D01*
X105799D01*
X106299Y118600D01*
Y120599D01*
X105799Y121099D01*
X104300D01*
X109298Y118100D02*
X107299D01*
X109298Y120099D01*
Y120599D01*
X108798Y121099D01*
X107799D01*
X107299Y120599D01*
X95500Y121099D02*
Y118100D01*
X97000D01*
X97499Y118600D01*
Y120599D01*
X97000Y121099D01*
X95500D01*
X98499Y118100D02*
X99499D01*
X98999D01*
Y121099D01*
X98499Y120599D01*
X133251Y49000D02*
X132751Y49499D01*
X131751D01*
X131251Y49000D01*
Y47000D01*
X131751Y46501D01*
X132751D01*
X133251Y47000D01*
X134250Y46501D02*
X135250D01*
X134750D01*
Y49499D01*
X134250Y49000D01*
X136749D02*
X137249Y49499D01*
X138249D01*
X138749Y49000D01*
Y48500D01*
X138249Y48000D01*
X137749D01*
X138249D01*
X138749Y47500D01*
Y47000D01*
X138249Y46501D01*
X137249D01*
X136749Y47000D01*
X142251Y49000D02*
X141751Y49499D01*
X140751D01*
X140251Y49000D01*
Y47000D01*
X140751Y46501D01*
X141751D01*
X142251Y47000D01*
X143250Y46501D02*
X144250D01*
X143750D01*
Y49499D01*
X143250Y49000D01*
X147749Y46501D02*
X145749D01*
X147749Y48500D01*
Y49000D01*
X147249Y49499D01*
X146249D01*
X145749Y49000D01*
X151250D02*
X150751Y49499D01*
X149751D01*
X149251Y49000D01*
Y47000D01*
X149751Y46501D01*
X150751D01*
X151250Y47000D01*
X152250Y46501D02*
X153250D01*
X152750D01*
Y49499D01*
X152250Y49000D01*
X154749Y46501D02*
X155749D01*
X155249D01*
Y49499D01*
X154749Y49000D01*
X146251Y66500D02*
X145751Y67000D01*
X144751D01*
X144251Y66500D01*
Y64500D01*
X144751Y64000D01*
X145751D01*
X146251Y64500D01*
X147250Y64000D02*
X148250D01*
X147750D01*
Y67000D01*
X147250Y66500D01*
X149749D02*
X150249Y67000D01*
X151249D01*
X151749Y66500D01*
Y64500D01*
X151249Y64000D01*
X150249D01*
X149749Y64500D01*
Y66500D01*
X127000D02*
X126500Y67000D01*
X125501D01*
X125001Y66500D01*
Y64500D01*
X125501Y64000D01*
X126500D01*
X127000Y64500D01*
X128000D02*
X128500Y64000D01*
X129499D01*
X129999Y64500D01*
Y66500D01*
X129499Y67000D01*
X128500D01*
X128000Y66500D01*
Y66000D01*
X128500Y65500D01*
X129999D01*
X120500Y66500D02*
X120000Y67000D01*
X119001D01*
X118501Y66500D01*
Y64500D01*
X119001Y64000D01*
X120000D01*
X120500Y64500D01*
X121500Y66500D02*
X122000Y67000D01*
X122999D01*
X123499Y66500D01*
Y66000D01*
X122999Y65500D01*
X123499Y65000D01*
Y64500D01*
X122999Y64000D01*
X122000D01*
X121500Y64500D01*
Y65000D01*
X122000Y65500D01*
X121500Y66000D01*
Y66500D01*
X122000Y65500D02*
X122999D01*
X157000Y54500D02*
X156500Y54000D01*
Y53001D01*
X157000Y52501D01*
X159000D01*
X159500Y53001D01*
Y54000D01*
X159000Y54500D01*
X156500Y55500D02*
Y57499D01*
X157000D01*
X159000Y55500D01*
X159500D01*
X172000Y112000D02*
X171500Y112499D01*
X170501D01*
X170001Y112000D01*
Y110000D01*
X170501Y109501D01*
X171500D01*
X172000Y110000D01*
X174999Y112499D02*
X174000Y112000D01*
X173000Y111000D01*
Y110000D01*
X173500Y109501D01*
X174499D01*
X174999Y110000D01*
Y110500D01*
X174499Y111000D01*
X173000D01*
X188500Y56000D02*
X188001Y55500D01*
Y54501D01*
X188500Y54001D01*
X190500D01*
X190999Y54501D01*
Y55500D01*
X190500Y56000D01*
X188001Y58999D02*
Y57000D01*
X189500D01*
X189000Y57999D01*
Y58499D01*
X189500Y58999D01*
X190500D01*
X190999Y58499D01*
Y57500D01*
X190500Y57000D01*
X90500Y98500D02*
X90000Y99000D01*
X89001D01*
X88501Y98500D01*
Y96500D01*
X89001Y96000D01*
X90000D01*
X90500Y96500D01*
X92999Y96000D02*
Y99000D01*
X91500Y97500D01*
X93499D01*
X172000Y105500D02*
X171500Y106000D01*
X170501D01*
X170001Y105500D01*
Y103500D01*
X170501Y103000D01*
X171500D01*
X172000Y103500D01*
X173000Y105500D02*
X173500Y106000D01*
X174499D01*
X174999Y105500D01*
Y105000D01*
X174499Y104500D01*
X174000D01*
X174499D01*
X174999Y104000D01*
Y103500D01*
X174499Y103000D01*
X173500D01*
X173000Y103500D01*
X188500Y69500D02*
X188001Y69000D01*
Y68001D01*
X188500Y67501D01*
X190500D01*
X190999Y68001D01*
Y69000D01*
X190500Y69500D01*
X190999Y72499D02*
Y70500D01*
X189000Y72499D01*
X188500D01*
X188001Y71999D01*
Y71000D01*
X188500Y70500D01*
X157000Y65500D02*
X156500Y65000D01*
Y64000D01*
X157000Y63501D01*
X159000D01*
X159500Y64000D01*
Y65000D01*
X159000Y65500D01*
X159500Y66500D02*
Y67499D01*
Y67000D01*
X156500D01*
X157000Y66500D01*
D11*
X141700Y81827D02*
X141627Y82830D01*
X141408Y83811D01*
X141049Y84751D01*
X140556Y85628D01*
X139942Y86424D01*
X139217Y87122D01*
X138399Y87708D01*
X137505Y88168D01*
X136553Y88493D01*
X135564Y88675D01*
X134558Y88712D01*
X133558Y88602D01*
X132585Y88348D01*
X131660Y87954D01*
X130801Y87430D01*
X130028Y86787D01*
X129357Y86037D01*
X128802Y85199D01*
X128375Y84288D01*
X128085Y83325D01*
X127938Y82329D01*
Y81324D01*
X128085Y80328D01*
X128375Y79365D01*
X128802Y78454D01*
X129357Y77615D01*
X130028Y76866D01*
X130801Y76223D01*
X131660Y75699D01*
X132585Y75305D01*
X133558Y75051D01*
X134558Y74941D01*
X135564Y74978D01*
X136553Y75160D01*
X137505Y75485D01*
X138399Y75945D01*
X139217Y76530D01*
X139942Y77229D01*
X140556Y78025D01*
X141049Y78902D01*
X141408Y79842D01*
X141627Y80823D01*
X141700Y81827D01*
X137760D02*
X137600Y82784D01*
X137138Y83638D01*
X136424Y84296D01*
X135534Y84686D01*
X134566Y84766D01*
X133625Y84528D01*
X132812Y83997D01*
X132216Y83231D01*
X131900Y82312D01*
Y81341D01*
X132216Y80423D01*
X132812Y79656D01*
X133625Y79125D01*
X134566Y78887D01*
X135534Y78967D01*
X136424Y79357D01*
X137138Y80015D01*
X137600Y80869D01*
X137760Y81827D01*
X26600Y98300D02*
X27633Y98506D01*
X28509Y99091D01*
X29094Y99967D01*
X29300Y101000D01*
X29094Y102033D01*
X28509Y102909D01*
X27633Y103495D01*
X26600Y103700D01*
X49973Y4614D02*
X89342D01*
X49973D02*
Y31189D01*
X83410D02*
X89342D01*
Y4614D02*
Y31189D01*
X73567D02*
X75590D01*
X63725D02*
X65747D01*
X49973D02*
X55905D01*
X123189Y70189D02*
X130153D01*
X139847D02*
X146811D01*
Y93811D01*
X139847D02*
X146811D01*
X123189D02*
X130153D01*
X123189Y70189D02*
Y93811D01*
X71000Y77500D02*
X75500Y82000D01*
X106000D01*
Y47000D02*
Y82000D01*
X71000Y47000D02*
X106000D01*
X71000D02*
Y77500D01*
X6315Y31189D02*
X12247D01*
X20067D02*
X22090D01*
X29910D02*
X31933D01*
X45685Y4614D02*
Y31189D01*
X39753D02*
X45685D01*
X6315Y4614D02*
Y31189D01*
Y4614D02*
X45685D01*
X26600Y92142D02*
Y94700D01*
Y107300D02*
Y109858D01*
X26658Y92142D02*
X27113D01*
X45887D02*
X46343D01*
Y109858D01*
X45887D02*
X46343D01*
X26658D02*
X27113D01*
X26600Y103700D02*
Y107300D01*
Y94700D02*
Y98300D01*
X50000Y101000D02*
Y131000D01*
X90000D01*
Y101000D02*
Y131000D01*
X50000Y101000D02*
X90000D01*
X51000Y105000D02*
X89000D01*
X181000Y136498D02*
Y130500D01*
X184999D01*
X186998Y136498D02*
X190997D01*
Y135498D01*
X186998Y131500D01*
Y130500D01*
X190997D01*
X192996Y136498D02*
Y130500D01*
Y133499D01*
X196995D01*
Y136498D01*
Y130500D01*
X20079Y118110D02*
X19962Y119109D01*
X19618Y120054D01*
X19065Y120894D01*
X18334Y121584D01*
X17463Y122087D01*
X16500Y122375D01*
X15496Y122434D01*
X14506Y122259D01*
X13583Y121861D01*
X12776Y121260D01*
X12130Y120490D01*
X11678Y119591D01*
X11447Y118613D01*
Y117607D01*
X11678Y116629D01*
X12130Y115731D01*
X12776Y114960D01*
X13583Y114360D01*
X14506Y113962D01*
X15496Y113787D01*
X16500Y113845D01*
X17463Y114134D01*
X18334Y114637D01*
X19065Y115326D01*
X19618Y116167D01*
X19962Y117112D01*
X20079Y118110D01*
X189370D02*
X189253Y119109D01*
X188909Y120054D01*
X188357Y120894D01*
X187626Y121584D01*
X186755Y122087D01*
X185791Y122375D01*
X184788Y122434D01*
X183797Y122259D01*
X182874Y121861D01*
X182068Y121260D01*
X181421Y120490D01*
X180970Y119591D01*
X180738Y118613D01*
Y117607D01*
X180970Y116629D01*
X181421Y115731D01*
X182068Y114960D01*
X182874Y114360D01*
X183797Y113962D01*
X184788Y113787D01*
X185791Y113845D01*
X186755Y114134D01*
X187626Y114637D01*
X188357Y115326D01*
X188909Y116167D01*
X189253Y117112D01*
X189370Y118110D01*
X0Y0D02*
X200000D01*
X0Y140000D02*
X200000D01*
Y0D02*
Y140000D01*
X0Y0D02*
Y140000D01*
D12*
X26460Y89189D02*
X25916Y89938D01*
X25036Y89652D01*
Y88726D01*
X25916Y88441D01*
X26460Y89189D01*
D13*
X129802Y101838D02*
X137902D01*
X129802D02*
Y108362D01*
X130702Y102738D02*
X154550D01*
Y118711D01*
X130702D02*
X154550D01*
X130702Y102738D02*
Y118711D01*
X160588Y87091D02*
X165111D01*
X160588Y76649D02*
Y87091D01*
X174382D02*
X178905D01*
Y76649D02*
Y87091D01*
X151300Y76300D02*
X156700D01*
X151300Y87200D02*
X156700D01*
Y76300D02*
Y80500D01*
X151300Y76300D02*
Y80500D01*
Y83500D02*
Y87200D01*
X156700Y83500D02*
Y87200D01*
X168700Y94800D02*
Y100200D01*
X157800Y94800D02*
Y100200D01*
X164500D02*
X168700D01*
X164500Y94800D02*
X168700D01*
X157800D02*
X161500D01*
X157800Y100200D02*
X161500D01*
X118800Y43300D02*
Y48700D01*
X129700Y43300D02*
Y48700D01*
X118800Y43300D02*
X123000D01*
X118800Y48700D02*
X123000D01*
X126000D02*
X129700D01*
X126000Y43300D02*
X129700D01*
X107300Y94800D02*
Y100200D01*
X118200Y94800D02*
Y100200D01*
X107300Y94800D02*
X111500D01*
X107300Y100200D02*
X111500D01*
X114500D02*
X118200D01*
X114500Y94800D02*
X118200D01*
X55300Y54700D02*
X60700D01*
X55300Y43800D02*
X60700D01*
X55300Y50500D02*
Y54700D01*
X60700Y50500D02*
Y54700D01*
Y43800D02*
Y47500D01*
X55300Y43800D02*
Y47500D01*
X41014Y54700D02*
X46414D01*
X41014Y43800D02*
X46414D01*
X41014Y50500D02*
Y54700D01*
X46414Y50500D02*
Y54700D01*
Y43800D02*
Y47500D01*
X41014Y43800D02*
Y47500D01*
X26729Y54700D02*
X32129D01*
X26729Y43800D02*
X32129D01*
X26729Y50500D02*
Y54700D01*
X32129Y50500D02*
Y54700D01*
Y43800D02*
Y47500D01*
X26729Y43800D02*
Y47500D01*
X12443Y54700D02*
X17843D01*
X12443Y43800D02*
X17843D01*
X12443Y50500D02*
Y54700D01*
X17843Y50500D02*
Y54700D01*
Y43800D02*
Y47500D01*
X12443Y43800D02*
Y47500D01*
X48157Y54700D02*
X53557D01*
X48157Y43800D02*
X53557D01*
X48157Y50500D02*
Y54700D01*
X53557Y50500D02*
Y54700D01*
Y43800D02*
Y47500D01*
X48157Y43800D02*
Y47500D01*
X5300Y43800D02*
Y47500D01*
X10700Y43800D02*
Y47500D01*
Y50500D02*
Y54700D01*
X5300Y50500D02*
Y54700D01*
Y43800D02*
X10700D01*
X5300Y54700D02*
X10700D01*
X19586Y43800D02*
Y47500D01*
X24986Y43800D02*
Y47500D01*
Y50500D02*
Y54700D01*
X19586Y50500D02*
Y54700D01*
Y43800D02*
X24986D01*
X19586Y54700D02*
X24986D01*
X35867Y79500D02*
Y83200D01*
X30467Y79500D02*
Y83200D01*
Y72300D02*
Y76500D01*
X35867Y72300D02*
Y76500D01*
X30467Y83200D02*
X35867D01*
X30467Y72300D02*
X35867D01*
X33871Y43800D02*
Y47500D01*
X39271Y43800D02*
Y47500D01*
Y50500D02*
Y54700D01*
X33871Y50500D02*
Y54700D01*
Y43800D02*
X39271D01*
X33871Y54700D02*
X39271D01*
X46033Y79500D02*
Y83200D01*
X40633Y79500D02*
Y83200D01*
Y72300D02*
Y76500D01*
X46033Y72300D02*
Y76500D01*
X40633Y83200D02*
X46033D01*
X40633Y72300D02*
X46033D01*
X56200Y79500D02*
Y83200D01*
X50800Y79500D02*
Y83200D01*
Y72300D02*
Y76500D01*
X56200Y72300D02*
Y76500D01*
X50800Y83200D02*
X56200D01*
X50800Y72300D02*
X56200D01*
X13207Y60051D02*
X16793D01*
X8952Y66950D02*
X13053D01*
X8952Y60051D02*
Y66950D01*
X16947D02*
X21048D01*
Y60051D02*
Y66950D01*
X40207Y60051D02*
X43793D01*
X35952Y66950D02*
X40053D01*
X35952Y60051D02*
Y66950D01*
X43947D02*
X48048D01*
Y60051D02*
Y66950D01*
X25700Y79500D02*
Y83200D01*
X20300Y79500D02*
Y83200D01*
Y72300D02*
Y76500D01*
X25700Y72300D02*
Y76500D01*
X20300Y83200D02*
X25700D01*
X20300Y72300D02*
X25700D01*
X26707Y60051D02*
X30293D01*
X22452Y66950D02*
X26553D01*
X22452Y60051D02*
Y66950D01*
X30447D02*
X34548D01*
Y60051D02*
Y66950D01*
X53707Y60051D02*
X57293D01*
X49452Y66950D02*
X53553D01*
X49452Y60051D02*
Y66950D01*
X57447D02*
X61548D01*
Y60051D02*
Y66950D01*
X34001Y102499D02*
Y100000D01*
X34501Y99501D01*
X35500D01*
X36000Y100000D01*
Y102499D01*
X38999D02*
X37999Y102000D01*
X37000Y101000D01*
Y100000D01*
X37500Y99501D01*
X38499D01*
X38999Y100000D01*
Y100500D01*
X38499Y101000D01*
X37000D01*
D14*
X144685Y4311D02*
Y24500D01*
Y4311D02*
X194685D01*
Y27500D01*
D15*
X144685Y24500D02*
Y37126D01*
X194685D01*
X144685Y24500D02*
X191685D01*
X194685Y27500D02*
Y37126D01*
X191685Y24500D02*
X194685Y27500D01*
D16*
X139441Y4646D02*
Y23744D01*
X93525Y4646D02*
X139441D01*
X101028Y28142D02*
X132000Y28457D01*
X139441Y25728D02*
Y28324D01*
X134441D02*
X139441D01*
X134441D02*
Y28328D01*
X93525Y4646D02*
X93586Y23181D01*
X93537Y28142D02*
X98547D01*
X93537Y25442D02*
Y28142D01*
D17*
X59000Y125969D02*
X57688D01*
X58344D01*
Y122033D01*
X59000Y122689D01*
X76376Y125969D02*
X79000D01*
X76376Y123345D01*
Y122689D01*
X77032Y122033D01*
X78344D01*
X79000Y122689D01*
M02*
