G04*
G04 #@! TF.GenerationSoftware,Altium Limited,Altium Designer,21.8.1 (53)*
G04*
G04 Layer_Color=255*
%FSLAX25Y25*%
%MOIN*%
G70*
G04*
G04 #@! TF.SameCoordinates,187DA05A-B4E4-4C7B-AEA6-211E795FDF11*
G04*
G04*
G04 #@! TF.FilePolarity,Positive*
G04*
G01*
G75*
%ADD11C,0.01000*%
%ADD53C,0.06000*%
%ADD54R,0.06000X0.06000*%
%ADD55R,0.06000X0.05906*%
%ADD56R,0.05905X0.05905*%
%ADD57C,0.05906*%
%ADD58O,0.12000X0.15000*%
D11*
X20079Y118110D02*
X19962Y119109D01*
X19618Y120054D01*
X19065Y120894D01*
X18334Y121584D01*
X17463Y122087D01*
X16500Y122375D01*
X15496Y122434D01*
X14506Y122259D01*
X13583Y121861D01*
X12776Y121260D01*
X12130Y120490D01*
X11678Y119591D01*
X11447Y118613D01*
Y117607D01*
X11678Y116629D01*
X12130Y115731D01*
X12776Y114960D01*
X13583Y114360D01*
X14506Y113962D01*
X15496Y113787D01*
X16500Y113845D01*
X17463Y114134D01*
X18334Y114637D01*
X19065Y115326D01*
X19618Y116167D01*
X19962Y117112D01*
X20079Y118110D01*
X189370D02*
X189253Y119109D01*
X188909Y120054D01*
X188357Y120894D01*
X187626Y121584D01*
X186755Y122087D01*
X185791Y122375D01*
X184788Y122434D01*
X183797Y122259D01*
X182874Y121861D01*
X182068Y121260D01*
X181421Y120490D01*
X180970Y119591D01*
X180738Y118613D01*
Y117607D01*
X180970Y116629D01*
X181421Y115731D01*
X182068Y114960D01*
X182874Y114360D01*
X183797Y113962D01*
X184788Y113787D01*
X185791Y113845D01*
X186755Y114134D01*
X187626Y114637D01*
X188357Y115326D01*
X188909Y116167D01*
X189253Y117112D01*
X189370Y118110D01*
X0Y0D02*
X200000D01*
X0Y140000D02*
X200000D01*
Y0D02*
Y140000D01*
X0Y0D02*
Y140000D01*
D53*
X79500Y31189D02*
D03*
X69657D02*
D03*
X174843Y32500D02*
D03*
X165000D02*
D03*
X155157D02*
D03*
X26000Y31189D02*
D03*
X35842D02*
D03*
D54*
X59815D02*
D03*
X16158D02*
D03*
D55*
X184685Y32500D02*
D03*
D56*
X102000Y23000D02*
D03*
D57*
X111845D02*
D03*
X122005D02*
D03*
X132005D02*
D03*
D58*
X80000Y114000D02*
D03*
X60000D02*
D03*
M02*
